<?xml version="1.0" standalone="no"?>
<!DOCTYPE svg PUBLIC "-//W3C//DTD SVG 20010904//EN"
 "http://www.w3.org/TR/2001/REC-SVG-20010904/DTD/svg10.dtd">
<svg version="1.0" xmlns="http://www.w3.org/2000/svg"
 width="200" height=""  viewBox="0 0 400.000000 783.000000"
 preserveAspectRatio="xMidYMid meet">

<g transform="translate(0.000000,783.000000) scale(0.100000,-0.100000)"
fill="#F9F5DC" stroke="none">
<path d="M1780 6078 c0 -1401 13 -2542 31 -2610 19 -73 101 -137 175 -138 88
0 177 65 202 149 9 28 12 543 12 2010 l0 1971 -210 0 -210 0 0 -1382z"/>
<path d="M2470 5395 l0 -1195 193 2 192 3 0 1190 0 1190 -192 3 -193 2 0
-1195z"/>
<path d="M1117 6394 c-4 -4 -7 -766 -7 -1693 0 -1664 3 -1841 32 -1841 7 0 90
45 306 168 l62 36 -2 1665 -3 1666 -191 3 c-104 1 -193 -1 -197 -4z"/>
<path d="M370 4625 c0 -1421 2 -1516 36 -1683 22 -108 92 -312 133 -387 195
-362 457 -600 845 -769 33 -15 60 -25 62 -24 1 2 10 32 19 68 22 86 76 187
127 239 24 23 38 45 32 49 -5 4 -27 14 -49 21 -76 26 -257 122 -333 178 -137
99 -232 203 -313 343 -67 114 -86 163 -131 335 -21 79 -22 97 -27 1560 l-6
1480 -197 3 -198 2 0 -1415z"/>
<path d="M3195 5200 c-3 -6 -5 -481 -4 -1058 1 -764 -2 -1065 -10 -1112 -23
-124 -54 -215 -108 -320 -87 -167 -182 -278 -331 -388 -86 -63 -268 -157 -362
-188 -30 -9 -57 -18 -58 -20 -2 -1 20 -33 48 -70 59 -77 93 -148 110 -228 14
-68 17 -68 125 -22 374 159 672 446 833 801 89 197 144 428 162 681 7 93 10
485 8 1039 l-3 890 -202 3 c-130 1 -204 -1 -208 -8z"/>
<path d="M2458 3608 c-5 -424 -7 -444 -63 -563 -53 -111 -137 -185 -265 -234
-182 -69 -369 -41 -520 78 -28 22 -55 41 -59 41 -3 0 -58 -31 -121 -69 -63
-39 -139 -84 -167 -101 -29 -16 -53 -34 -53 -38 0 -13 129 -132 190 -176 49
-35 103 -63 231 -120 117 -52 352 -67 497 -33 136 32 251 86 347 160 213 166
346 370 375 577 7 46 10 226 8 470 l-3 395 -197 3 -196 2 -4 -392z"/>
<path d="M1907 2168 c-181 -21 -333 -158 -382 -345 -68 -262 110 -529 383
-574 191 -32 393 82 479 268 105 227 8 503 -214 609 -86 40 -166 53 -266 42z
m141 -253 c45 -19 76 -47 110 -100 22 -33 27 -52 27 -105 0 -56 -4 -71 -30
-110 -70 -103 -180 -134 -285 -80 -72 37 -110 104 -110 192 1 154 151 260 288
203z"/>
<path d="M1350 800 l0 -250 940 0 941 0 -3 138 -3 137 -35 0 -35 0 -5 -100 -5
-100 -855 0 -855 0 -3 213 -2 212 -40 0 -40 0 0 -250z"/>
<path d="M1020 815 c0 -34 1 -35 43 -35 23 0 52 -3 64 -6 28 -8 45 -51 41
-105 l-3 -44 -95 -5 -95 -5 0 -30 0 -30 138 -3 137 -3 0 96 c0 162 -33 205
-156 205 l-74 0 0 -35z"/>
<path d="M827 824 c-4 -4 -8 -66 -8 -138 -1 -72 -4 -144 -8 -161 -6 -28 -10
-30 -53 -33 -44 -3 -46 -4 -50 -38 -2 -19 -2 -37 1 -39 10 -11 94 -4 121 10
56 29 65 62 65 240 l0 160 -30 3 c-17 2 -34 0 -38 -4z"/>
<path d="M3150 486 c-6 -8 -10 -25 -8 -38 4 -30 46 -38 65 -12 17 23 16 29 -3
48 -19 20 -38 20 -54 2z"/>
</g>
</svg>
