<svg xmlns="http://www.w3.org/2000/svg" xmlns:xlink="http://www.w3.org/1999/xlink" width="200" height="100" viewBox="0 0 150 75"><clipPath id="a"><path transform="scale(.24)" d="M0 0h625v343.75H0z" fill-rule="evenodd"/></clipPath><g clip-path="url(#a)"><path d="M0 0h150v82.5H0z" fill="transparent"/></g><clipPath id="b"><path transform="scale(.24)" d="M0 0h625v312.5H0z" fill-rule="evenodd"/></clipPath><g clip-path="url(#b)"><path d="M0 0h150v75H0z" fill="transparent"/></g><clipPath id="c"><path transform="scale(.24)" d="M0 0h625v312.5H0z" fill-rule="evenodd"/></clipPath><g clip-path="url(#c)"><path d="M0 0h150v75H0z" fill="transparent"/></g><clipPath id="d"><path transform="scale(.24)" d="M0 0h625v312.5H0z" fill-rule="evenodd"/></clipPath><g clip-path="url(#d)"><symbol id="e"><path d="M.171.474a.057.057 0 0 0-.04.017.055.055 0 0 0-.017.04c0 .017.006.03.018.04.011.011.024.016.04.016C.186.587.2.582.211.571A.053.053 0 0 0 .227.53C.228.52.225.51.219.5A.055.055 0 0 0 .2.482.054.054 0 0 0 .17.475m.116 0a.057.057 0 0 0-.04.017.055.055 0 0 0-.017.04c0 .017.006.03.017.04.012.011.025.016.04.016.016 0 .029-.005.04-.016A.053.053 0 0 0 .343.53a.055.055 0 0 0-.03-.049.054.054 0 0 0-.026-.008M.229 0a.224.224 0 0 0-.162.067A.233.233 0 0 0 0 .23.23.23 0 0 0 .317.44a.23.23 0 0 0 .14-.211V0H.23m0 .172c.015 0 .029.006.04.017a.055.055 0 0 1 .017.04.055.055 0 0 1-.017.04.055.055 0 0 1-.04.017.055.055 0 0 1-.04-.017.055.055 0 0 1-.017-.04C.172.213.178.2.19.189a.055.055 0 0 1 .04-.017z"/></symbol><symbol id="f"><path d="M0 0v.228h.124v.227A.115.115 0 0 0 .24.571h.114V.402h.395c.037 0 .064-.01.083-.028C.85.355.86.327.86.29V.152A.147.147 0 0 0 .814.044.156.156 0 0 0 .707 0H0m.454.458a.056.056 0 0 0-.056.057.056.056 0 0 0 .056.056c.01 0 .02-.002.028-.007a.06.06 0 0 0 .02-.02.053.053 0 0 0 .01-.03.055.055 0 0 0-.057-.057M.352.228h.309c.007 0 .013.003.017.008.005.005.008.01.008.018V.26c0 .017-.009.025-.025.025H.379A.025.025 0 0 1 .36.277.024.024 0 0 1 .353.26V.228z"/></symbol><symbol id="g"><path d="M.229 0v.226a.223.223 0 0 0-.161.066.224.224 0 0 0-.05.25.23.23 0 0 0 .3.123A.224.224 0 0 0 .44.542.219.219 0 0 0 .458.454V.152a.152.152 0 0 0-.094-.14A.145.145 0 0 0 .305 0H.229m0 .398c.015 0 .029.005.04.016a.055.055 0 0 1 .017.04c0 .017-.006.03-.018.041a.057.057 0 0 1-.04.016.053.053 0 0 1-.04-.018.057.057 0 0 1 0-.079.055.055 0 0 1 .04-.016z"/></symbol><symbol id="h"><path d="M.353.474a.056.056 0 0 0-.056.057.056.056 0 0 0 .056.056A.055.055 0 0 0 .41.531.056.056 0 0 0 .353.475M0 0v.228h.124a.22.22 0 0 0 .068.16.233.233 0 0 0 .161.068A.22.22 0 0 0 .514.39.224.224 0 0 0 .582.228V0H0m.353.171c.017 0 .03.006.04.017C.405.2.41.213.41.228c0 .016-.005.03-.017.04a.056.056 0 0 1-.079 0 .053.053 0 0 1-.016-.04c0-.016.005-.03.016-.04A.055.055 0 0 1 .353.17z"/></symbol><symbol id="i"><path d="M0 0v.228h.648a.025.025 0 0 1 .026.025v.01c0 .015-.008.022-.022.022H.125a.154.154 0 0 0 .148.117h.463c.036 0 .063-.01.082-.028C.838.355.847.327.847.29V0H0z"/></symbol><symbol id="j"><path d="M.353 0a.233.233 0 0 0-.229.228H0v.228h.353a.227.227 0 0 0 .16-.39A.225.225 0 0 0 .354 0m0 .172c.016 0 .029.006.04.017.01.01.016.024.016.04a.056.056 0 0 1-.016.04.053.053 0 0 1-.04.016.055.055 0 0 1-.04-.017.055.055 0 0 1-.016-.04A.054.054 0 0 1 .326.18.058.058 0 0 1 .353.172z"/></symbol><symbol id="k"><path d="M0 0z"/></symbol><symbol id="l"><path d="M.171.7a.057.057 0 0 0-.04.016.055.055 0 0 0-.017.04c0 .016.006.029.017.04a.055.055 0 0 0 .04.017.055.055 0 0 0 .04-.017.055.055 0 0 0 .017-.04c0-.01-.003-.02-.009-.029A.055.055 0 0 0 .2.707.054.054 0 0 0 .17.7m.116 0a.054.054 0 0 0-.04.017.054.054 0 0 0-.016.04c0 .014.005.027.016.039a.054.054 0 0 0 .04.017.055.055 0 0 0 .04-.017.055.055 0 0 0 .016-.04.055.055 0 0 0-.03-.049A.054.054 0 0 0 .288.7M.229 0v.226a.223.223 0 0 0-.161.066.224.224 0 0 0-.05.25.23.23 0 0 0 .3.123A.224.224 0 0 0 .44.542.219.219 0 0 0 .458.454V.152a.152.152 0 0 0-.094-.14A.145.145 0 0 0 .305 0H.229m0 .398c.015 0 .029.005.04.016a.055.055 0 0 1 .017.04c0 .017-.006.03-.018.041a.057.057 0 0 1-.04.016.053.053 0 0 1-.04-.018.057.057 0 0 1 0-.079.055.055 0 0 1 .04-.016z"/></symbol><symbol id="m"><path d="M.298.474a.056.056 0 0 0-.056.057c0 .015.005.029.016.04a.055.055 0 0 0 .04.016.055.055 0 0 0 .04-.016.053.053 0 0 0 .016-.04.055.055 0 0 0-.016-.04.054.054 0 0 0-.04-.017m.116 0a.056.056 0 0 0-.057.057.056.056 0 0 0 .057.056A.055.055 0 0 0 .47.531.056.056 0 0 0 .414.475M0 0v.228h.124a.22.22 0 0 0 .068.16.233.233 0 0 0 .161.068A.22.22 0 0 0 .514.39.224.224 0 0 0 .582.228V0H0m.353.171c.017 0 .03.006.04.017C.405.2.41.213.41.228c0 .016-.005.03-.017.04a.056.056 0 0 1-.079 0 .053.053 0 0 1-.016-.04c0-.016.005-.03.016-.04A.055.055 0 0 1 .353.17z"/></symbol><symbol id="n"><path d="M0 0v.228h.124v.19a.148.148 0 0 0 .044.108.151.151 0 0 0 .109.045h.076V.152A.153.153 0 0 0 .308.045.148.148 0 0 0 .2 0H0z"/></symbol><symbol id="o"><path d="M.152 0a.142.142 0 0 0-.059.012.166.166 0 0 0-.048.033.166.166 0 0 0-.033.048.142.142 0 0 0-.012.06V.57h.077A.152.152 0 0 0 .184.527.15.15 0 0 0 .217.478a.146.146 0 0 0 .012-.06V0H.152z"/></symbol><symbol id="p"><path d="M.229 0a.224.224 0 0 0-.162.067A.23.23 0 0 0 0 .23a.235.235 0 0 0 .05.143.237.237 0 0 0-.05.142.23.23 0 0 0 .327.207.226.226 0 0 0 .124-.15H.227A.057.057 0 0 1 .172.513h.285V.285H.226A.055.055 0 0 1 .172.229C.172.213.177.2.188.189a.058.058 0 0 1 .04-.017H.45A.226.226 0 0 0 .229 0z"/></symbol><symbol id="q"><path d="M0 .228v.228h.469V.228H0M.235 0a.055.055 0 0 0-.049.03.057.057 0 0 0 .009.067.055.055 0 0 0 .04.016c.017 0 .03-.005.041-.016a.058.058 0 0 0 .016-.04.053.053 0 0 0-.017-.04A.053.053 0 0 0 .235 0m.116 0a.055.055 0 0 0-.04.017.055.055 0 0 0-.017.04c0 .015.006.029.017.04a.055.055 0 0 0 .04.016c.017 0 .03-.005.04-.017a.057.057 0 0 0 .016-.04.056.056 0 0 0-.016-.04A.053.053 0 0 0 .351 0z"/></symbol><symbol id="r"><path d="M.353 0a.233.233 0 0 0-.229.228H0v.228h.582V.228a.224.224 0 0 0-.14-.21A.219.219 0 0 0 .352 0m0 .172c.016 0 .029.006.04.017.01.01.016.024.016.04a.056.056 0 0 1-.016.04.053.053 0 0 1-.04.016.055.055 0 0 1-.04-.017.055.055 0 0 1-.016-.04A.054.054 0 0 1 .326.18.058.058 0 0 1 .353.172z"/></symbol><symbol id="s"><path d="M0 .228v.228h.648a.025.025 0 0 1 .026.026v.01c0 .014-.008.021-.022.021H.125A.154.154 0 0 0 .273.63h.463C.772.63.799.622.818.603.838.583.847.556.847.52V.34C.847.304.837.276.818.257.8.237.772.228.736.228H0M.486 0a.055.055 0 0 0-.04.017.054.054 0 0 0-.017.04.056.056 0 0 0 .057.056.055.055 0 0 0 .056-.057.053.053 0 0 0-.016-.04A.055.055 0 0 0 .486 0z"/></symbol><use xlink:href="#e" transform="matrix(10.5832 0 0 -10.5832 27.324 29.565)" fill="#f9f5dc"/><use xlink:href="#f" transform="matrix(10.5832 0 0 -10.5832 31.58 29.565)" fill="#f9f5dc"/><use xlink:href="#g" transform="matrix(10.5832 0 0 -10.5832 41.264 31.952)" fill="#f9f5dc"/><use xlink:href="#h" transform="matrix(10.5832 0 0 -10.5832 45.52 29.565)" fill="#f9f5dc"/><use xlink:href="#i" transform="matrix(10.5832 0 0 -10.5832 51.089 29.565)" fill="#f9f5dc"/><use xlink:href="#j" transform="matrix(10.5832 0 0 -10.5832 59.461 31.981)" fill="#f9f5dc"/><use xlink:href="#k" transform="matrix(10.5832 0 0 -10.5832 65.911 29.565)" fill="#f9f5dc"/><use xlink:href="#l" transform="matrix(10.5832 0 0 -10.5832 67.381 31.952)" fill="#f9f5dc"/><use xlink:href="#g" transform="matrix(10.5832 0 0 -10.5832 72.814 31.952)" fill="#f9f5dc"/><use xlink:href="#m" transform="matrix(10.5832 0 0 -10.5832 77.07 29.565)" fill="#f9f5dc"/><use xlink:href="#i" transform="matrix(10.5832 0 0 -10.5832 82.638 29.565)" fill="#f9f5dc"/><use xlink:href="#n" transform="matrix(10.5832 0 0 -10.5832 91.011 29.565)" fill="#f9f5dc"/><use xlink:href="#o" transform="matrix(10.5832 0 0 -10.5832 95.332 29.565)" fill="#f9f5dc"/><use xlink:href="#k" transform="matrix(10.5832 0 0 -10.5832 98.049 29.565)" fill="#f9f5dc"/><use xlink:href="#p" transform="matrix(10.5832 0 0 -10.5832 99.519 32.581)" fill="#f9f5dc"/><use xlink:href="#q" transform="matrix(10.5832 0 0 -10.5832 103.764 31.981)" fill="#f9f5dc"/><use xlink:href="#r" transform="matrix(10.5832 0 0 -10.5832 108.138 31.981)" fill="#f9f5dc"/><use xlink:href="#s" transform="matrix(10.5832 0 0 -10.5832 113.706 31.981)" fill="#f9f5dc"/><symbol id="t"><path d="M.152 0A.153.153 0 0 0 0 .152v.302a.229.229 0 0 0 .457 0V.226H.23V0H.152M.23.398c.015 0 .029.005.04.016a.055.055 0 0 1 .016.04c0 .016-.005.03-.016.04a.054.054 0 0 1-.04.017.056.056 0 0 1-.04-.017.053.053 0 0 1-.017-.04c0-.016.006-.03.017-.04A.056.056 0 0 1 .23.398z"/></symbol><symbol id="u"><path d="M0 0v.228h.193V0H0z"/></symbol><symbol id="v"><path d="M0 0v.228h.124v.19a.148.148 0 0 0 .044.108.151.151 0 0 0 .109.045h.076V0H0z"/></symbol><symbol id="w"><path d="M0 0v.023c0 .012.004.023.013.031.01.009.02.013.03.013H.2V.044a.041.041 0 0 0-.013-.03A.041.041 0 0 0 .156 0H0z"/></symbol><symbol id="x"><path d="M0 0v.228h.124A.224.224 0 0 0 .192.39a.233.233 0 0 0 .161.068.232.232 0 0 0 .222-.172H.352A.057.057 0 0 1 .297.228H.58V0H0z"/></symbol><symbol id="y"><path d="M0 .228v.228h.491V.381A.147.147 0 0 0 .446.272.156.156 0 0 0 .339.228H0M.224 0a.055.055 0 0 0-.049.03.057.057 0 0 0 .009.067.055.055 0 0 0 .04.016C.24.113.254.108.265.097a.058.058 0 0 0 .016-.04.053.053 0 0 0-.017-.04A.053.053 0 0 0 .224 0M.34 0A.055.055 0 0 0 .3.017a.055.055 0 0 0-.017.04c0 .015.006.029.017.04a.055.055 0 0 0 .04.016C.357.113.37.108.38.096a.057.057 0 0 0 .016-.04.056.056 0 0 0-.016-.04A.053.053 0 0 0 .34 0z"/></symbol><symbol id="z"><path d="M0 0v.419a.148.148 0 0 0 .044.107.151.151 0 0 0 .108.045H.23V.152a.152.152 0 0 0-.094-.14A.145.145 0 0 0 .076 0H0z"/></symbol><symbol id="A"><path d="M.152 0a.142.142 0 0 0-.059.012.166.166 0 0 0-.048.033.166.166 0 0 0-.033.048.142.142 0 0 0-.012.06V.57h.077A.152.152 0 0 0 .184.527.15.15 0 0 0 .217.478a.146.146 0 0 0 .012-.06V0H.152z"/></symbol><symbol id="B"><path d="M0 0v.228h.124v.019a.151.151 0 0 0 .046.11.153.153 0 0 0 .11.045h.078V.156a.151.151 0 0 0-.012-.06.152.152 0 0 0-.083-.084A.151.151 0 0 0 .203 0H0m.371 0v.247a.151.151 0 0 0 .046.11.153.153 0 0 0 .11.045h.078V.156a.151.151 0 0 0-.012-.06A.152.152 0 0 0 .51.012.151.151 0 0 0 .45 0H.37m.247 0v.247c0 .021.004.041.011.06a.157.157 0 0 0 .144.095h.079V.156a.151.151 0 0 0-.013-.06.152.152 0 0 0-.082-.084A.151.151 0 0 0 .697 0h-.08z"/></symbol><symbol id="C"><path d="M.171.7a.057.057 0 0 0-.04.016.055.055 0 0 0-.017.04c0 .016.006.029.017.04a.055.055 0 0 0 .04.017.055.055 0 0 0 .04-.017.055.055 0 0 0 .017-.04c0-.01-.003-.02-.009-.029A.055.055 0 0 0 .2.707.054.054 0 0 0 .17.7m.116 0a.054.054 0 0 0-.04.017.054.054 0 0 0-.016.04c0 .014.005.027.016.039a.054.054 0 0 0 .04.017.055.055 0 0 0 .04-.017.055.055 0 0 0 .016-.04.055.055 0 0 0-.03-.049A.054.054 0 0 0 .288.7M.229 0v.226a.223.223 0 0 0-.161.066.224.224 0 0 0-.05.25.23.23 0 0 0 .3.123A.224.224 0 0 0 .44.542.219.219 0 0 0 .458.454V.152a.152.152 0 0 0-.094-.14A.145.145 0 0 0 .305 0H.229m0 .398c.015 0 .029.005.04.016a.055.055 0 0 1 .017.04c0 .017-.006.03-.018.041a.057.057 0 0 1-.04.016.053.053 0 0 1-.04-.018.057.057 0 0 1 0-.079.055.055 0 0 1 .04-.016z"/></symbol><symbol id="D"><path d="M0 0v.419a.148.148 0 0 0 .044.107.151.151 0 0 0 .108.045H.23V.152a.152.152 0 0 0-.094-.14A.145.145 0 0 0 .076 0H0z"/></symbol><use xlink:href="#t" transform="matrix(10.5832 0 0 -10.5832 29.184 53.118)" fill="#f9f5dc"/><use xlink:href="#u" transform="matrix(10.5832 0 0 -10.5832 33.435 50.731)" fill="#f9f5dc"/><use xlink:href="#u" transform="matrix(10.5832 0 0 -10.5832 34.893 50.731)" fill="#f9f5dc"/><use xlink:href="#v" transform="matrix(10.5832 0 0 -10.5832 36.351 50.731)" fill="#f9f5dc"/><use xlink:href="#u" transform="matrix(10.5832 0 0 -10.5832 39.497 50.731)" fill="#f9f5dc"/><use xlink:href="#u" transform="matrix(10.5832 0 0 -10.5832 40.955 50.731)" fill="#f9f5dc"/><use xlink:href="#w" transform="matrix(10.5832 0 0 -10.5832 45.035 51.843)" fill="#f9f5dc"/><use xlink:href="#x" transform="matrix(10.5832 0 0 -10.5832 42.413 50.731)" fill="#f9f5dc"/><use xlink:href="#u" transform="matrix(10.5832 0 0 -10.5832 47.975 50.731)" fill="#f9f5dc"/><use xlink:href="#u" transform="matrix(10.5832 0 0 -10.5832 49.433 50.731)" fill="#f9f5dc"/><use xlink:href="#n" transform="matrix(10.5832 0 0 -10.5832 50.891 50.731)" fill="#f9f5dc"/><use xlink:href="#o" transform="matrix(10.5832 0 0 -10.5832 55.213 50.731)" fill="#f9f5dc"/><use xlink:href="#k" transform="matrix(10.5832 0 0 -10.5832 57.93 50.731)" fill="#f9f5dc"/><use xlink:href="#e" transform="matrix(10.5832 0 0 -10.5832 59.399 50.731)" fill="#f9f5dc"/><use xlink:href="#u" transform="matrix(10.5832 0 0 -10.5832 63.656 50.731)" fill="#f9f5dc"/><use xlink:href="#u" transform="matrix(10.5832 0 0 -10.5832 65.114 50.731)" fill="#f9f5dc"/><use xlink:href="#y" transform="matrix(10.5832 0 0 -10.5832 66.572 53.148)" fill="#f9f5dc"/><use xlink:href="#z" transform="matrix(10.5832 0 0 -10.5832 72.358 53.124)" fill="#f9f5dc"/><use xlink:href="#A" transform="matrix(10.5832 0 0 -10.5832 75.368 50.731)" fill="#f9f5dc"/><use xlink:href="#u" transform="matrix(10.5832 0 0 -10.5832 77.202 50.731)" fill="#f9f5dc"/><use xlink:href="#u" transform="matrix(10.5832 0 0 -10.5832 78.66 50.731)" fill="#f9f5dc"/><use xlink:href="#B" transform="matrix(10.5832 0 0 -10.5832 80.119 50.731)" fill="#f9f5dc"/><use xlink:href="#k" transform="matrix(10.5832 0 0 -10.5832 89.426 50.731)" fill="#f9f5dc"/><use xlink:href="#C" transform="matrix(10.5832 0 0 -10.5832 90.896 53.118)" fill="#f9f5dc"/><use xlink:href="#u" transform="matrix(10.5832 0 0 -10.5832 95.153 50.731)" fill="#f9f5dc"/><use xlink:href="#u" transform="matrix(10.5832 0 0 -10.5832 96.61 50.731)" fill="#f9f5dc"/><use xlink:href="#y" transform="matrix(10.5832 0 0 -10.5832 98.069 53.148)" fill="#f9f5dc"/><use xlink:href="#D" transform="matrix(10.5832 0 0 -10.5832 103.854 53.124)" fill="#f9f5dc"/><use xlink:href="#u" transform="matrix(10.5832 0 0 -10.5832 105.689 50.731)" fill="#f9f5dc"/><use xlink:href="#u" transform="matrix(10.5832 0 0 -10.5832 107.147 50.731)" fill="#f9f5dc"/><use xlink:href="#h" transform="matrix(10.5832 0 0 -10.5832 108.605 50.731)" fill="#f9f5dc"/><use xlink:href="#u" transform="matrix(10.5832 0 0 -10.5832 114.173 50.731)" fill="#f9f5dc"/><use xlink:href="#u" transform="matrix(10.5832 0 0 -10.5832 115.631 50.731)" fill="#f9f5dc"/><use xlink:href="#n" transform="matrix(10.5832 0 0 -10.5832 117.09 50.731)" fill="#f9f5dc"/><symbol id="E"><path d="M0 0v.23C0 .25.005.27.014.287a.113.113 0 0 0 .099.055h.171c0 .015-.005.029-.016.04A.05.05 0 0 1 .23.401H.006a.232.232 0 0 0 .222.172.23.23 0 0 0 .229-.23V.308A.031.031 0 0 0 .444.283a.046.046 0 0 0-.03-.01h-.13A.04.04 0 0 1 .241.232V.229H.4A.055.055 0 0 0 .457.17V0H0z"/></symbol><symbol id="F"><path d="M.286 0a.28.28 0 0 0-.203.083A.294.294 0 0 0 0 .286a.278.278 0 0 0 .083.201.29.29 0 0 0 .203.084.278.278 0 0 0 .201-.084.283.283 0 0 0 0-.404A.287.287 0 0 0 .286 0m0 .215a.069.069 0 0 1 .06.035c.007.01.01.023.01.036a.069.069 0 0 1-.035.06.069.069 0 0 1-.035.01.069.069 0 0 1-.062-.035.069.069 0 0 1-.009-.035A.069.069 0 0 1 .25.224.069.069 0 0 1 .286.215z"/></symbol><symbol id="G"><path d="M.222 0A.232.232 0 0 0 0 .172h.223c.016 0 .029.005.04.015.01.01.015.022.015.037H.085v.092a.055.055 0 0 0 .057.057h.136A.048.048 0 0 1 .262.41a.055.055 0 0 1-.039.014H0a.232.232 0 0 0 .222.172.23.23 0 0 0 .229-.23.077.077 0 0 0-.004-.023.054.054 0 0 0-.014-.022.071.071 0 0 0-.03-.016V.29a.068.068 0 0 0 .03-.017.054.054 0 0 0 .014-.022A.07.07 0 0 0 .45.23.224.224 0 0 0 .383.068.23.23 0 0 0 .222 0z"/></symbol><symbol id="H"><path d="M.108 0a.11.11 0 0 0-.093.053A.105.105 0 0 0 0 .107v.055h.24A.109.109 0 0 0 .348.054V0h-.24z"/></symbol><symbol id="I"><path d="M.152 0a.152.152 0 0 0-.14.093.152.152 0 0 0-.012.06V.57h.077a.151.151 0 0 0 .14-.094.14.14 0 0 0 .012-.059V0H.152z"/></symbol><symbol id="J"><path d="M.436 0a.151.151 0 0 0-.147.111H.152a.153.153 0 0 0-.06.012.152.152 0 0 0-.092.14v.308h.077a.151.151 0 0 0 .14-.094A.14.14 0 0 0 .229.42V.228h.054V.57H.36A.151.151 0 0 0 .5.477.14.14 0 0 0 .512.418V0H.436z"/></symbol><use xlink:href="#E" transform="matrix(6.18005 0 0 -6.18005 60.429 65.338)" fill="#f9f5dc"/><use xlink:href="#F" transform="matrix(6.18005 0 0 -6.18005 63.594 65.338)" fill="#f9f5dc"/><use xlink:href="#E" transform="matrix(6.18005 0 0 -6.18005 67.467 65.338)" fill="#f9f5dc"/><use xlink:href="#G" transform="matrix(6.18005 0 0 -6.18005 70.633 65.49)" fill="#f9f5dc"/><use xlink:href="#k" transform="matrix(6.18005 0 0 -6.18005 73.589 65.338)" fill="#f9f5dc"/><use xlink:href="#H" transform="matrix(6.18005 0 0 -6.18005 74.447 64.59)" fill="#f9f5dc"/><use xlink:href="#k" transform="matrix(6.18005 0 0 -6.18005 76.768 65.338)" fill="#f9f5dc"/><use xlink:href="#I" transform="matrix(6.18005 0 0 -6.18005 77.627 65.338)" fill="#f9f5dc"/><use xlink:href="#J" transform="matrix(6.18005 0 0 -6.18005 79.384 65.338)" fill="#f9f5dc"/><use xlink:href="#J" transform="matrix(6.18005 0 0 -6.18005 82.893 65.338)" fill="#f9f5dc"/><use xlink:href="#J" transform="matrix(6.18005 0 0 -6.18005 86.402 65.338)" fill="#f9f5dc"/></g></svg>
