<svg xmlns="http://www.w3.org/2000/svg" xmlns:xlink="http://www.w3.org/1999/xlink" width="500" height="500" viewBox="0 0 375 375"><clipPath id="a"><path transform="scale(.24)" d="M0 0h1562.5v1593.75H0z" fill-rule="evenodd"/></clipPath><g clip-path="url(#a)"><path d="M0 0h375v382.5H0z" fill="transparent"/></g><clipPath id="b"><path transform="scale(.24)" d="M0 0h1562.5v1562.5H0z" fill-rule="evenodd"/></clipPath><g clip-path="url(#b)"><path d="M0 0h375v375H0z" fill="transparent"/></g><clipPath id="c"><path transform="scale(.24)" d="M0 0h1562.5v1562.5H0z" fill-rule="evenodd"/></clipPath><g clip-path="url(#c)"><path d="M0 0h375v375H0z" fill="transparent"/></g><clipPath id="d"><path transform="scale(.24)" d="M0 0h1562.5v1593.75H0z"/></clipPath><g clip-path="url(#d)"><clipPath id="e"><path transform="scale(.24)" d="M0 0h1562.5v1562.5H0z"/></clipPath><g clip-path="url(#e)"><clipPath id="f"><path transform="scale(.24)" d="M0 0h1562.5v1562.5H0z"/></clipPath><g clip-path="url(#f)"><clipPath id="g"><path transform="scale(.24)" d="m519.136 478.175 67.68 32.317-102.337 214.321-67.68-32.317 102.337-214.32z"/></clipPath><g clip-path="url(#g)"><clipPath id="h"><path transform="scale(.24)" d="m586.728 510.45-67.68-32.317L416.71 692.454l67.68 32.317 102.337-214.32z"/></clipPath><g clip-path="url(#h)" fill="#009736"><path d="M111.015 143.175c.262-.518.587-1.004.886-1.503a.301.301 0 0 1 .061-.082.171.171 0 0 1 .19-.034c.11.04.154.12.116.244-.128.402-.212.808-.125 1.23l.009.012-.005.01-.006-.025c-.13.167-.029.413-.2.583-.028-.055-.068-.098-.068-.14.003-.171.023-.341.026-.512.004-.222.055-.45-.031-.7-.075.12-.123.212-.185.294-.509.67-.754 1.454-.962 2.25-.231.888-.24 1.794-.21 2.702.02.655.132 1.297.31 1.924.163.577.342 1.154.621 1.686.415.788.854 1.563 1.29 2.34.439.783.763 1.605.891 2.499.012.08-.004.17.112.236.074-.175.152-.344.216-.519.021-.06.03-.149.001-.198-.097-.162-.062-.335-.064-.503a9.281 9.281 0 0 0-.215-1.885 3.807 3.807 0 0 1-.059-.406c-.003-.024.03-.052.063-.106.14.236.122.498.19.733.07.245.095.504.156.753.058.237.024.49.113.747.172-.276.356-.51.138-.82-.04-.056 0-.166-.001-.251-.005-.512.038-1.032-.086-1.534-.18-.728-.328-1.47-.728-2.124-.035-.058-.052-.126-.075-.191-.018-.052-.018-.1.07-.129.036.04.086.082.119.136.104.176.225.347.296.537.18.482.344.97.499 1.46.176.56.153 1.147.177 1.761.14-.143.174-.291.22-.431.05-.146.087-.297.15-.436.322-.701.513-1.451.803-2.164a.38.38 0 0 0 .033-.149c-.01-.375.015-.749-.017-1.127-.076-.9-.396-1.735-.683-2.575-.156-.454-.28-.915-.407-1.376-.013-.046-.004-.069.033-.07.063.004.094.046.108.094.22.756.614 1.451.79 2.223.292.634.384 1.31.427 1.998.003.045.04.088.074.157.197-.406.413-.775.544-1.158-.147-.43-.276-.84-.427-1.24-.263-.697-.358-1.42-.383-2.161-.02-.568.074-1.126.095-1.69.015-.375.07-.75.102-1.124.01-.101.004-.204.005-.307.005-.532-.055-1.058-.117-1.585a5.208 5.208 0 0 0-.159-.805c-.069-.247-.164-.486-.245-.73a18.766 18.766 0 0 1-.188-.584l.043-.073c.024-.01.074-.005.089.013.13.164.162.373.246.56.211.47.336.964.418 1.473.148.936.174 1.874.079 2.817-.035.357-.081.713-.1 1.07a12.68 12.68 0 0 0 .042 1.742c.02.255.055.51.139.756.152.453.298.907.45 1.36.008.024.052.035.08.053.104-.048.127-.156.17-.245.196-.4.39-.802.579-1.206.08-.167.197-.326.112-.533-.016-.039.01-.1.025-.147.092-.293.182-.587.281-.877.159-.456.252-.924.28-1.405.025-.425.059-.852.118-1.271.087-.611.174-1.218.132-1.837-.013-.188-.01-.376-.008-.564 0-.048.025-.096.043-.143l.04-.026c.03.002.077.005.085.023.03.06.062.126.063.19.02.839.052 1.677-.128 2.506-.036.165-.04.338-.054.508-.031.392-.062.782-.125 1.172-.042.26-.154.513-.106.79.144-.159.216-.354.31-.536.174-.334.33-.675.538-.993.186-.285.311-.61.464-.916.072-.545.293-1.053.404-1.588.161-.781.188-1.561-.022-2.34-.107-.397-.207-.796-.317-1.192a10.085 10.085 0 0 1-.303-1.666c-.071-.68-.092-1.366-.13-2.05-.058-1.08.202-2.105.586-3.101.13-.335.304-.654.47-.974.125-.242.243-.497.412-.708a5.499 5.499 0 0 1 1.867-1.5c.149-.075.253.02.394.026.06-.07.133-.144.19-.227.345-.499.78-.903 1.281-1.24.197-.132.224-.136.521-.048-.01.064-.005.14-.036.195-.19.348-.294.725-.403 1.104-.183.645-.333 1.29-.281 1.968.017.221.022.444.03.666a.203.203 0 0 1-.02.1c-.013.026-.041.057-.067.061-.026.005-.07-.017-.077-.038a.662.662 0 0 1-.044-.199c-.017-.41-.033-.82-.038-1.23 0-.155.017-.308.05-.459.057-.284.13-.566.194-.85.01-.047 0-.1-.076-.119a.986.986 0 0 0-.104.09c-.337.375-.546.83-.752 1.28-.14.308-.309.614-.359.959-.081.576-.176 1.152-.027 1.733.025.098.018.205.035.306.053.303.095.61.17.908.16.631.276 1.27.35 1.918.03.252-.004.512-.01.769l-.012.048c-.03.038-.065.072-.098.107-.03-.036-.087-.071-.087-.107-.002-.205.038-.415.008-.615-.105-.712-.18-1.43-.394-2.121-.204-.66-.21-1.35-.269-2.03a.491.491 0 0 1 .004-.103c.08-.664.235-1.31.468-1.938.08-.217.236-.373.345-.564.215-.376.47-.715.853-.936a.304.304 0 0 0 .14-.205c.035-.14.057-.284.092-.46-.118.093-.192.164-.278.216-.419.259-.712.633-.97 1.04-.056.086-.114.17-.177.252-.285.373-.453.804-.608 1.24a4.365 4.365 0 0 0-.189.639c-.045.234-.058.474-.078.712-.043.513-.069 1.026.041 1.535.022.1.03.203.048.304.046.241.01.479-.035.714-.008.041-.056.075-.096.125-.028-.063-.069-.107-.066-.152.017-.38-.045-.749-.118-1.118a1.936 1.936 0 0 1-.04-.305c-.04-1.198.12-2.355.72-3.42.032-.058.05-.124.072-.183-.118-.079-.212-.02-.296.026a5.685 5.685 0 0 0-.89.604c-.558.457-.891 1.076-1.244 1.68-.2.343-.307.725-.439 1.097a7.114 7.114 0 0 0-.406 2.724c.031.752.067 1.504.196 2.25.068.39.124.777.236 1.157.21.705.41 1.413.483 2.15.02.188.025.375.014.563a6.71 6.71 0 0 1-.192 1.21c-.017.068-.081.137-.017.227a.843.843 0 0 0 .25-.263c.208-.353.42-.705.639-1.053.2-.319.399-.638.613-.947.254-.365.526-.718.785-1.079.087-.123.193-.247.08-.417-.023-.034-.008-.101.006-.148.123-.416.121-.845.162-1.27a5.63 5.63 0 0 0-.214-2.235 2.83 2.83 0 0 1-.109-.708c0-.02.042-.043.065-.064.645 1.378.592 2.819.351 4.292.276-.222.404-.48.467-.803.054-.273.065-.57.223-.819.021.003.046-.003.052.007.11.156.01.332.02.513a.314.314 0 0 0 .14-.236c.105-.763.204-1.527.16-2.3-.018-.307-.05-.618-.159-.908-.163-.436-.211-.9-.33-1.345a.797.797 0 0 1-.025-.255c.043-.628-.005-1.269.235-1.873.018-.046.009-.102.018-.153.01-.05.03-.09.105-.069.006.044.03.098.018.14-.121.417-.119.847-.148 1.272-.03.425.018.85.126 1.27.11.43.2.865.316 1.295.037.15.057.303.061.457.027.583.022 1.164-.077 1.742-.016.095-.053.202.015.297.077.028.134-.005.175-.066.108-.158.182-.33.222-.517.124-.586.232-1.175.146-1.78-.046-.32-.073-.647-.119-.969-.05-.356-.098-.712-.054-1.073.014-.118.002-.24.003-.36a9.396 9.396 0 0 1 .232-1.929c.13-.603.322-1.19.538-1.763.365-.969.881-1.85 1.62-2.59.222-.223.464-.413.749-.534.324-.138.581-.358.831-.593.112-.106.208-.227.317-.336.035-.035.083-.075.128-.078a.391.391 0 0 1 .193.038c.071.034.074.106.051.177a.424.424 0 0 1-.037.095 7.507 7.507 0 0 0-.711 1.478c-.02.055-.06.103-.094.153l-.11-.097c.001-.173.095-.322.151-.48.061-.171.194-.321.139-.563-.294.19-.546.391-.84.518-.256.111-.454.3-.647.497-.58.596-.992 1.295-1.34 2.047-.312.674-.515 1.381-.684 2.095a8.894 8.894 0 0 0-.113 3.671c.094.511.087 1.023.106 1.536a.701.701 0 0 1-.065.297c-.04.096-.07.192-.104.287.088.033.148.011.191-.048.102-.137.19-.283.299-.416.435-.528.875-1.05 1.312-1.576.066-.079.135-.157.181-.247.467-.913.725-1.88.736-2.908.008-.6.065-1.195.17-1.786.062-.352.147-.705.314-1.028.173-.336.346-.671.532-.999.076-.13.187-.243.291-.356.039-.041.1-.09.17-.014-.017.046-.023.102-.052.14-.301.38-.49.82-.71 1.245a2.947 2.947 0 0 0-.211.578c-.154.547-.196 1.11-.252 1.67-.046.46.023.921-.086 1.38-.07.299-.124.601-.217.894a1.536 1.536 0 0 0-.084.523c.17-.245.361-.424.425-.64.067-.223.21-.385.3-.583.087-.187.197-.366.254-.56.115-.395.23-.787.305-1.194.146-.807.325-1.61.496-2.412.064-.301.13-.603.251-.888.31-.728.681-1.416 1.187-2.032a4.072 4.072 0 0 1 1.819-1.286c.177-.063.355-.124.53-.193.603-.242 1.232-.26 1.868-.233.073.004.12.056.14.142-.127.135-.303.14-.47.141a4.764 4.764 0 0 0-2.04.452c-.047.022-.096.038-.144.056a3.279 3.279 0 0 0-1.442 1.039c-.118.146-.215.31-.338.451-.385.446-.617.976-.843 1.51-.235.556-.336 1.148-.458 1.734-.129.62-.228 1.245-.35 1.866-.059.301-.122.602-.268.88-.077.15-.126.314-.191.48a.446.446 0 0 0 .265-.17c.227-.257.449-.519.687-.764.632-.65 1.27-1.294 1.91-1.937.301-.304.633-.58.908-.906.352-.422.654-.877.906-1.366.181-.349.357-.702.566-1.035.322-.51.765-.918 1.2-1.328a.773.773 0 0 1 .268-.144c.08-.029.12.034.133.119-.032.03-.066.068-.104.1-.66.553-1.248 1.167-1.642 1.948-.177.351-.348.707-.59 1.022-.04.052-.06.12-.086.176.064.042.11.022.149-.004a6.037 6.037 0 0 0 1.224-1.09 27.85 27.85 0 0 1 1.213-1.322 3.53 3.53 0 0 1 1.326-.859c.32-.12.65-.22.98-.311.32-.09.604-.236.836-.476.016-.017.061-.01.093-.012.055.066.025.125-.021.176a1.896 1.896 0 0 1-.776.488c-.274.097-.554.18-.83.275-.258.09-.526.164-.755.319-.384.26-.754.534-1.054.895-.197.237-.411.46-.618.688-.053.058-.13.106-.082.204.186-.034.382-.123.55-.088.223.046.369-.035.513-.154.212-.174.41-.365.615-.546a.954.954 0 0 1 .164-.118c.016-.008.054.016.077.033l.007.047c-.033.06-.06.125-.108.17-.36.345-.75.65-1.173.913-.058.037-.123.081-.186.085-.366.018-.636.234-.913.433-.403.29-.8.587-1.197.886-.177.133-.35.275-.517.421-.294.26-.586.524-.875.79-.264.243-.523.492-.783.74-.05.04-.06.088-.034.146a6.82 6.82 0 0 1 1.548-.677c.891-.273 1.703-.71 2.525-1.13.18-.092.333-.235.501-.349.016-.01.06.013.087.029l.013.047c-.028.06-.046.136-.093.173-.162.126-.326.253-.505.351-.737.405-1.488.778-2.288 1.044-.13.043-.26.09-.388.138a8.857 8.857 0 0 0-2.645 1.555c-.095.081-.215.153-.277.321.364-.197.653-.456 1.04-.507l.022.046c.01.06-.014.1-.07.122-.528.254-.988.61-1.435.984-.026.022-.054.057-.082.058-.217.009-.322.174-.446.311-.651.724-1.308 1.443-1.947 2.178-.14.16-.32.311-.372.556.181-.052.307-.166.43-.274a8.02 8.02 0 0 1 1.346-.94c.46-.262.933-.501 1.431-.69.593-.222 1.18-.466 1.786-.646a29.946 29.946 0 0 1 2.541-.628c.312-.064.631-.119.891-.336.04.103.012.172-.044.21-.114.073-.233.15-.36.191-.31.1-.624.188-.94.267-.53.132-1.065.249-1.597.38-.217.053-.429.12-.637.202-.651.259-1.325.46-1.962.757-.233.108-.47.21-.693.335-.628.35-1.23.74-1.787 1.2-.37.304-.754.59-1.123.896a2.54 2.54 0 0 0-.388.407c-.354.462-.7.93-1.042 1.399-.362.497-.697 1.016-1.078 1.499-.566.714-1.035 1.489-1.494 2.27-.295.502-.571 1.014-.856 1.522-.025.045-.043.096-.075.135-.298.363-.454.804-.676 1.209a.53.53 0 0 0-.055.144c-.01.05-.072.102-.008.17.084-.068.163-.132.244-.194.326-.25.647-.504.98-.744.18-.13.378-.234.57-.348.561-.333 1.147-.621 1.78-.777.582-.143 1.173-.253 1.764-.342.592-.088 1.168-.268 1.757-.379.082-.016.162-.056.242-.085.372-.139.708-.344 1.038-.56.214-.141.423-.291.643-.425.087-.053.162-.02.17.127a17.34 17.34 0 0 1-1.183.783 4.472 4.472 0 0 1-1.534.567c-.169.03-.336.068-.504.103-.789.16-1.577.319-2.366.486-.166.035-.328.094-.491.146-.543.175-1.026.466-1.507.767-.776.487-1.471 1.06-2.007 1.81-.05.07-.094.164-.163.192-.2.08-.268.254-.351.422l-1.359 2.772c-.068.138-.126.286-.219.406-.14.178-.236.378-.332.578-.171.355-.3.728-.455 1.088-.21.49-.373.99-.535 1.57.289-.5.62-.886.971-1.247a12.07 12.07 0 0 1 1.969-1.643c.559-.372 1.132-.71 1.793-.865a.606.606 0 0 1 .2-.007c.019.002.036.05.046.08l-.014.047c-.059.032-.118.068-.181.086-.5.14-.955.365-1.397.639-.717.444-1.36.982-1.985 1.542-.153.136-.313.275-.43.438-.298.415-.689.763-.868 1.255-.07-.034-.118-.075-.16-.071a.152.152 0 0 0-.115.084c-.091.24-.178.482-.254.727-.025.083-.077.183.024.271.122-.1.239-.198.36-.289.015-.011.07.005.083.024.014.019.02.074.005.092-.078.09-.163.173-.247.259-.327.334-.59.707-.717 1.16.102.085.281-.172.332.109-.111.133-.225.282-.352.42-.13.14-.221.304-.274.489-.078.262-.16.521-.222.788-.024.103-.085.213-.02.353.098-.089.188-.166.272-.249a6.808 6.808 0 0 1 1.09-.855c.505-.322 1.028-.62 1.605-.803.164-.05.33-.104.48-.184.275-.146.572-.228.866-.319.406-.126.8-.295 1.22-.38.082-.016.159-.062.24-.089.178-.06.355-.134.539-.168.185-.037.362-.098.53-.184.386-.188.77-.378 1.153-.569.155-.074.295-.17.42-.288.196-.19.418-.353.629-.527.038-.032.078-.056.13-.03.03.118-.04.198-.114.267-.375.352-.76.688-1.226.923-.61.307-1.219.606-1.887.792-.953.267-1.906.547-2.8.988a.46.46 0 0 1-.097.034c-.702.165-1.275.595-1.853.982-.552.369-1.024.853-1.466 1.357-.043.048-.076.107-.046.178.078.008.136-.032.177-.087.241-.32.557-.551.894-.76.54-.333 1.093-.64 1.652-.94.334-.174.68-.319 1.04-.433.6-.197 1.203-.388 1.805-.578.245-.077.49-.157.74-.215.286-.063.56-.16.822-.29.578-.298 1.143-.62 1.715-.931.212-.115.396-.268.586-.416.3-.231.532-.53.809-.783.412-.375.71-.828.995-1.297.203-.334.422-.658.626-.975.102.014.17.025.188.106-.102.178-.196.358-.303.53-.356.564-.7 1.138-1.151 1.634-.439.482-.882.962-1.426 1.328-.67.45-1.39.819-2.133 1.123-.695.285-1.426.487-2.146.708-.754.232-1.503.467-2.211.824a11.795 11.795 0 0 0-2.629 1.776c-.27.244-.34.474-.275.916a3.67 3.67 0 0 1 1.45-1.513c.65-.379 1.33-.711 2.056-.925.342-.1.709-.168 1.062-.161.373.007.748.026 1.122.027.528 0 1.472-.099 2.038-.208.212-.04.429-.134.65-.05a.187.187 0 0 1-.024.2c-.12.168-.235.338-.36.5-.333.435-.76.736-1.28.905-.619.204-1.247.376-1.871.559-.776.226-1.528.496-2.217.937-.652.418-1.247.901-1.828 1.41a4.224 4.224 0 0 0-.467.475c-.338.406-.667.821-.994 1.238-.05.064-.071.154-.092.236-.012.046.002.1.01.212.274-.38.461-.714.72-.98.64-.664 1.246-1.359 2.048-1.855.842-.522 1.7-.949 2.7-1.056.26-.028.516-.036.765.016.586.12 1.166.271 1.703.545.261.133.538.22.819.297.322.089.641.088.96-.02.08-.028.161-.063.244-.073.072-.01.126.038.146.137a1.44 1.44 0 0 1-.699.258c-.477.041-.916-.072-1.34-.27a7.834 7.834 0 0 0-1.7-.556c-.512-.11-1.016-.07-1.524.035-.616.128-1.158.432-1.687.742-.878.516-1.585 1.244-2.263 1.994-.286.316-.513.687-.808.993-.173.18-.212.377-.251.591-.009.047.019.096.093.107.117-.158.235-.323.358-.485.417-.546.891-1.04 1.378-1.522.647-.639 1.338-1.229 2.135-1.676.574-.323 1.19-.526 1.852-.56a.531.531 0 0 1 .197.04c.024.009.049.05.051.079 0 .033-.014.06-.04.08-.14.082-.297.074-.449.094a4.087 4.087 0 0 0-1.539.544c-.561.331-1.102.691-1.55 1.175-.093.1-.194.192-.303.276-.355.273-.635.62-.943.94-.045.048-.088.104-.072.181.173-.11.33-.24.471-.389.286-.294.586-.574.884-.856.086-.083.179-.157.28-.222.333-.209.668-.418 1.011-.61.62-.348 1.277-.587 1.993-.634.568-.037 1.122-.125 1.608-.456a.102.102 0 0 1 .093-.005c.026.012.036.052.06.091a1.52 1.52 0 0 1-.91.511c-.353.06-.7.147-1.062.166-.185.01-.37.066-.55.12-.903.265-1.681.758-2.41 1.337-.032.025-.068.07-.013.113.161-.017.285-.115.421-.186.718-.376 1.468-.663 2.279-.758.747-.087 1.494-.193 2.244-.232a3.951 3.951 0 0 0 1.142-.247c.242-.086.486-.167.693-.328a.367.367 0 0 1 .14-.061l.074.035c.01.026.005.077-.014.093-.246.183-.473.396-.762.515a.53.53 0 0 0-.214.13c-.317.397-.734.656-1.173.892-.146.078-.302.146-.413.28.171.166.173.222.017.346l-.485.38c-.38.297-.793.538-1.238.724-.374.156-.79.233-1.194.291a51.55 51.55 0 0 1-2.294.27c-.7.07-1.33.298-1.901.757-.021.617-.074 1.25-.056 1.881.028.959-.071 1.915-.017 2.875.025.444.036.885.115 1.325.041.235.056.476.068.715.009.166-.104.242-.273.19-.112-.035-.24-.045-.34-.182-.022-.324-.059-.68-.068-1.038a58.25 58.25 0 0 1 .04-4.104c.004-.085.006-.17.005-.256a.238.238 0 0 0-.156-.248c-.341-.155-.668-.334-1.05-.401a8.606 8.606 0 0 1-1.29-.32 4.664 4.664 0 0 1-1.695-1.029c-.603-.564-1.054-1.254-1.464-1.971-.349-.608-.664-1.236-1.049-1.823-.08-.124-.173-.25-.192-.4.056-.045.106-.043.139 0 .104.136.2.277.303.413.04.053.082.121.138.144.338.134.587.396.874.602.455.329.863.717 1.35 1.012.529.321 1.056.625 1.66.778.066.017.124.057.189.08.291.11.533.304.796.461.284.17.52.387.733.635.235.273.458.554.62.878.024.047.055.084.115.074.052-.037.03-.089.02-.132-.112-.549-.442-.962-.863-1.3-.6-.479-1.215-.939-1.89-1.313-.105-.057-.213-.113-.305-.188-.048-.039-.138-.093-.073-.197.05.017.1.036.147.059.628.347 1.248.707 1.817 1.147.122.094.24.19.421.21a2.95 2.95 0 0 1-.27-.564.623.623 0 0 0-.158-.259c-.274-.257-.525-.535-.82-.773a19.683 19.683 0 0 1-1.386-1.215c-.39-.382-.737-.808-1.092-1.224-.098-.115-.152-.266-.233-.396-.08-.13-.174-.254-.256-.384-.073-.115-.15-.23-.206-.352-.23-.496-.432-1.002-.553-1.537-.012-.051-.031-.061-.069-.026-.012.03-.036.062-.034.09.038.426.058.855.227 1.256.1.237.197.475.312.704.34.68.776 1.29 1.375 1.764.512.404.962.872 1.435 1.316.037.035.055.077.024.127-.095.024-.166-.031-.23-.085-.485-.404-.985-.795-1.45-1.222-.65-.599-.79-.768-1.184-1.467-.36-.64-.702-1.296-.682-2.07.002-.066-.038-.133-.038-.2.002-.199-.038-.403.058-.582l.183-.01c.012-.169.018-.34.04-.51.016-.101.046-.198.09-.29.02-.041.083-.053.139-.028.056.132.004.266-.004.4-.015.233-.024.467.113.673a.588.588 0 0 0-.025.24c.03.298.175.554.274.826.408 1.123 1.166 2.005 1.992 2.828.483.48 1.02.907 1.519 1.372.399.37.8.746.963 1.297.02.064.063.122.105.175a.761.761 0 0 1 .184.416c.007.094.054.157.11.223.095.109.176.233.32.29.06-.117.084-.247.021-.312-.145-.15-.134-.345-.203-.514-.077-.19-.144-.393-.268-.55-.359-.456-.744-.891-1.195-1.261a24.13 24.13 0 0 1-.665-.563 1.86 1.86 0 0 1-.28-.297c-.22-.305-.434-.615-.643-.928a3.093 3.093 0 0 1-.255-.443c-.355-.79-.565-1.612-.553-2.484.005-.342-.009-.686.02-1.026.033-.373.102-.744.163-1.115a.145.145 0 0 1 .098-.101c.039-.007.083.025.126.046.075-.176.03-.363.042-.544.015-.222.032-.444.054-.665.002-.024.04-.046.07-.077.037.026.09.045.115.08.11.16.14.342.163.534.078.652.253 1.281.61 1.838.268.416.495.86.815 1.243.175.212.32.443.435.692.018.039.026.106-.054.114l-.047-.016a3.226 3.226 0 0 1-.113-.168c-.029-.043-.052-.089-.083-.13-.196-.259-.394-.516-.591-.775a1.454 1.454 0 0 1-.06-.083c-.168-.258-.331-.52-.505-.774-.087-.126-.114-.288-.245-.384-.008-.007-.031.007-.075.019.062.157.116.315.184.467.125.281.274.553.386.84.322.82.782 1.558 1.322 2.249.159.203.312.409.47.61.441.562.733 1.195.921 1.88.024.086.022.191.165.248-.002-.287.104-.553-.066-.81-.036-.055-.046-.13-.056-.197-.09-.552-.327-1.04-.63-1.502-.1-.15-.177-.314-.268-.476.11-.029.154.025.193.083.142.214.277.432.426.642.222.312.379.65.438 1.03.009.056.01.134.117.135.048-.233.125-.46.115-.702-.019-.43-.082-.851-.253-1.251-.094-.22-.19-.441-.268-.667a2.006 2.006 0 0 0-.28-.548c-.415-.566-.763-1.173-1.103-1.786-.285-.515-.439-1.076-.588-1.639a1.67 1.67 0 0 1-.017-.715c.01-.058.017-.132.134-.124 0 .446.099.877.253 1.297.349.957.858 1.827 1.457 2.644.119.167.216.345.293.535.153.362.302.727.457 1.088.015.035.011.113.094.078.07-.111.025-.23.01-.344-.06-.444-.213-.863-.352-1.287a2.963 2.963 0 0 0-.637-1.103c-.426-.466-.676-1.024-.89-1.606-.085-.23-.1-.467-.112-.706.001-.052.015-.1.041-.146a.1.1 0 0 1 .082-.048.094.094 0 0 1 .07.06c.015.084.022.168.02.253-.002.226.042.443.131.65.227.539.5 1.049.91 1.476.3.315.499.69.61 1.113.057.215.13.426.197.639.02.063.036.129.109.154.023-.023.06-.042.069-.07.072-.246.141-.493.205-.74.01-.051.007-.101-.008-.15-.063-.219-.053-.44-.026-.66.024-.206.015-.41-.025-.614a8.13 8.13 0 0 0-.904-2.502 97.804 97.804 0 0 1-1.064-1.934c-.405-.76-.68-1.569-.894-2.4-.205-.8-.308-1.61-.25-2.438.004-.068.015-.139 0-.204-.04-.188-.01-.373-.004-.561.015-.431.114-.848.2-1.266a6.315 6.315 0 0 1 .57-1.588l-.004.008zm2.658 20.976c1.023-.208 2.067-.252 3.1-.384.495-.064.977-.169 1.425-.39.244-.12.477-.267.706-.412.201-.128.39-.276.59-.41a.54.54 0 0 0 .205-.263c-.093.026-.187.048-.278.08-.5.175-1.013.3-1.539.373-.76.103-1.51.286-2.263.441-.32.066-.604.233-.9.364-.374.165-.749.326-1.094.51-.005.078.013.096.048.09zm-.538-.092c.608-.383 1.256-.69 1.923-.947a8.833 8.833 0 0 1 1.727-.464c.538-.09 1.072-.204 1.615-.266.481-.054.921-.255 1.35-.464.321-.156.619-.363.925-.55.026-.016.039-.054.097-.14-.53-.028-1.002.045-1.476.085-.459.038-.917.097-1.374.158a5.297 5.297 0 0 0-1.375.387c-.676.289-1.332.617-1.969.985-.221.127-.454.232-.637.42a.315.315 0 0 1-.285.103l.015-.255c-.287.319-.569.624-.787 1.062.129-.056.194-.077.25-.113h.001zm-1.275 1.432c-.558-.996-1.363-1.699-2.455-2.053-.213-.07-.427-.122-.599-.275a.297.297 0 0 0-.088-.052c-.814-.321-1.436-.916-2.08-1.476a3.195 3.195 0 0 0-.628-.435c.08.217.143.425.277.606.143.193.268.397.374.613.365.748.88 1.388 1.495 1.934.461.409 1.012.696 1.604.887.292.09.589.162.89.215.464.087.928.198 1.324.503.03-.193-.038-.333-.114-.467zm-.564-3.944c-.286-.29-.544-.609-.826-.907a6.152 6.152 0 0 1-1.493-2.602 3.787 3.787 0 0 1-.137-.91c0-.023.042-.047.08-.087.088.156.072.33.12.484.052.163.1.328.149.492.029.098.044.203.09.293.345.689.684 1.383 1.217 1.956.533.572 1.064 1.134 1.554 1.762.028-.059.057-.09.052-.113a3.36 3.36 0 0 0-.343-.91 11.79 11.79 0 0 0-1.067-1.564 8.992 8.992 0 0 1-1.252-2.112c-.113-.268-.249-.526-.36-.796a7.749 7.749 0 0 1-.44-1.367c-.019-.093-.019-.193-.1-.259-.254 1.165-.275 2.33-.015 3.498a4.19 4.19 0 0 0 .707 1.583c.13.18.26.36.388.543.175.256.385.48.628.672.217.166.42.35.626.53.469.406.875.866 1.177 1.412.014.027.046.044.07.066.047 0 .065-.02.054-.061-.166-.604-.431-1.15-.879-1.603zm2.032-1.529c-.013.2-.167.386-.058.605.651-.992 1.554-1.665 2.625-2.128.234-.102.477-.186.719-.272.114-.04.235-.057.347.012.03.018.049.043.059.076.003.023-.023.069-.044.075-.146.045-.298.074-.443.123-.504.17-.97.411-1.432.678a4.82 4.82 0 0 0-1.37 1.216c-.223.28-.42.582-.612.885-.08.128-.118.283-.17.427-.018.05-.003.101.083.17.69-1 1.596-1.755 2.55-2.453a7.955 7.955 0 0 1 2.725-1.275 29.26 29.26 0 0 0 2.011-.616 2.317 2.317 0 0 0 1.081-.75c.043-.052.07-.117.1-.177l-.005-.053c-.046-.076-.12-.048-.176-.03-.379.114-.77.14-1.162.174-.682.058-1.364.07-2.048.033a2.592 2.592 0 0 0-.91.133 8.996 8.996 0 0 0-1.057.396c-.433.202-.86.42-1.257.692a3.257 3.257 0 0 0-.686.611c-.017.022-.011.063-.02.121.184-.108.35-.218.525-.307.35-.175.706-.342 1.061-.512.062-.03.125-.055.19-.075.81-.235 1.631-.396 2.475-.404.71-.006 1.395-.097 2.014-.48a.218.218 0 0 1 .098-.02l.044.024c.013.03.036.07.025.09-.03.06-.063.13-.116.162-.296.172-.595.335-.945.382-.44.06-.878.146-1.327.113a1.264 1.264 0 0 0-.254.011c-.952.127-1.9.27-2.754.756-.208.118-.428.218-.632.34-.447.266-.809.628-1.123 1.038-.051.065-.127.139-.132.211l.001-.002z"/><path d="M133.21 138.093c-.23.441-.503.854-.82 1.237-.426.517-.9.986-1.42 1.407-.55.443-1.125.85-1.759 1.15-.772.364-1.55.726-2.37.984-.146.046-.295.083-.438.136-.74.271-1.467.575-2.19.89a8.53 8.53 0 0 0-1.563.88c-.458.329-.884.703-1.323 1.058-.008.006 0 .032.002.06.43-.208.858-.41 1.28-.62a6.046 6.046 0 0 1 1.754-.56c.522-.084 1.05-.115 1.583-.011.536.104 1.078.19 1.63.173.05-.001.107.001.15.023.042.023.088.071.09.11 0 .039-.047.1-.084.11-.218.06-.44.047-.662.019-.543-.07-1.084-.164-1.63-.192-.867-.044-1.7.14-2.497.492a16.96 16.96 0 0 0-1.779.92c-.677.401-1.353.803-1.922 1.358l-.883.858c-.123.119-.242.24-.367.358-.018.016-.056.013-.083.018l-.034-.041c-.032-.074.005-.126.05-.183.612-.767 1.305-1.451 2.113-2.011.158-.11.303-.234.408-.385.21-.302.487-.528.764-.758.238-.196.483-.383.716-.583a9.07 9.07 0 0 1 2.304-1.43c.753-.327 1.501-.668 2.294-.892.1-.026.197-.058.294-.094.51-.201 1.016-.41 1.528-.606.693-.263 1.323-.643 1.932-1.057.453-.307.862-.675 1.26-1.052.628-.594 1.11-1.298 1.542-2.04.034-.06.11-.13.024-.234-.16.039-.325.083-.491.119-.468.1-.936.206-1.416.238-.546.037-1.096.062-1.639.024-1.103-.075-2.134.23-3.171.523-.414.117-.785.34-1.177.511-.419.18-.755.463-1.093.75-.092.078-.172.168-.262.246a.517.517 0 0 1-.134.072l-.048-.012c-.015-.025-.038-.065-.029-.083.042-.073.084-.15.144-.208.185-.178.374-.353.569-.52.378-.322.738-.665 1.153-.942.772-.519 1.617-.892 2.475-1.238.349-.141.709-.26 1.043-.43a39.361 39.361 0 0 0 1.852-.995c.622-.358 1.268-.68 1.817-1.153.233-.201.466-.403.691-.613.79-.737 1.538-1.509 2.018-2.496.031-.066.143-.106.076-.21-.142-.016-.21.103-.3.172-.396.303-.809.587-1.271.767-.477.186-.976.32-1.47.456-.626.17-1.263.303-1.887.483a8.393 8.393 0 0 0-2.371 1.089c-.155.104-.313.205-.472.31-.05-.114-.011-.193.058-.243.29-.21.577-.43.883-.616.663-.403 1.388-.667 2.125-.894.229-.071.461-.142.697-.174.203-.03.403-.076.598-.139.442-.133.885-.26 1.325-.397.31-.098.633-.178.904-.362.494-.338.986-.68 1.451-1.053.307-.246.567-.549.708-.932.053-.145.12-.284.178-.426.02-.057.058-.082.117-.074.078.012.11.077.098.152-.016.1-.026.205-.064.298-.143.352-.365.66-.614.938-.13.146-.242.273-.271.47-.013.082-.064.159-.102.235-.154.305-.326.6-.517.883-.268.398-.562.775-.883 1.131-.345.384-.728.725-1.113 1.064-.36.314-.73.621-1.122.892-.38.261-.791.476-1.192.703a24.92 24.92 0 0 1-2.523 1.273c-.566.241-1.126.498-1.688.752-.054.024-.136.046-.093.15a9.16 9.16 0 0 1 3.035-.407 11.9 11.9 0 0 0 2.452-.139 4.504 4.504 0 0 0 1.127-.332c.075-.034.149-.07.222-.104.147.271.159.293.048.43-.142.175-.242.373-.345.57zM117.299 151.12c.86-.857 1.875-1.476 2.975-1.972.391-.176.802-.29 1.201-.438.529-.197 1.079-.327 1.624-.472a12.84 12.84 0 0 0 2.45-.908c.992-.497 1.876-1.121 2.611-1.955.057-.064.118-.124.184-.18.037-.032.086-.065.137-.026.054.037.06.081.018.131-.106.154-.215.307-.338.483.063.244-.015.483-.125.72-.151.328-.288.661-.436.989-.326.723-.723 1.4-1.32 1.939-.203.183-.42.35-.622.536a7.124 7.124 0 0 1-2.89 1.612c-.378.109-.762.2-1.147.28-.59.122-1.16.304-1.72.519-.662.25-1.271.595-1.826 1.034-.091.073-.17.175-.306.168.003-.032-.006-.074.011-.094.187-.226.4-.422.64-.59.918-.625 1.926-1.033 3.007-1.273.618-.137 1.235-.28 1.833-.494.403-.146.788-.33 1.155-.554.797-.48 1.477-1.099 2.092-1.793.09-.102.17-.213.257-.319.34-.418.524-.92.762-1.394.147-.291.233-.6.327-.976-.235.176-.437.305-.612.463-.58.523-1.262.879-1.961 1.205-.81.377-1.668.621-2.527.856-.33.09-.665.166-.99.274-.747.25-1.48.527-2.18.905-.577.31-1.119.659-1.624 1.072a14.067 14.067 0 0 0-1.81 1.738c-.082-.22.023-.322.112-.416.342-.36.687-.72 1.037-1.07zM131.362 130.145c.201-.019.393-.071.576-.156.077-.034.155-.078.237-.091.561-.09 1.084-.317 1.632-.45a4.616 4.616 0 0 0 1.05-.408c.076-.04.154-.076.235-.105.708-.248 1.3-.675 1.834-1.191.074-.07.153-.133.237-.19.019-.013.073-.004.089.015.018.03.02.06.006.092-.184.25-.4.467-.649.652-.316.234-.632.465-.99.636-.51.245-1.018.495-1.557.664-.931.292-1.873.552-2.801.851-.406.13-.812.29-1.18.502-.696.403-1.367.85-1.953 1.409-.26.248-.521.493-.807.762-.062-.098-.093-.158-.03-.22.158-.157.323-.307.47-.472.695-.78 1.58-1.303 2.459-1.834.115-.07.247-.119.377-.164.15-.053.148-.226.259-.306.069-.05.14-.098.21-.149a5.94 5.94 0 0 1 1.685-.857 9.477 9.477 0 0 0 2.183-1.007c.361-.224.724-.452 1.038-.745.722-.674 1.26-1.489 1.721-2.346.326-.606.667-1.194 1.095-1.731.192-.24.388-.48.65-.65.043-.028.09-.055.141-.017.001.167.003.169-.053.219a5.93 5.93 0 0 0-1.07 1.304c-.19.308-.354.624-.526.94-.294.541-.606 1.071-.991 1.554-.502.633-1.04 1.22-1.748 1.639-.666.393-1.34.77-2.073 1.012-.604.199-1.189.434-1.746.738-.037.02-.04.055-.01.1zM117.952 132.097c-.358.554-.592 1.152-.633 1.822a6.75 6.75 0 0 0 .21 2.082c.021.082.037.17.077.243.198.363.309.761.483 1.134.325.7.362 1.45.423 2.198.001.015-.043.038-.068.05l-.044-.018c-.022-.082-.052-.165-.055-.248a4.452 4.452 0 0 0-.238-1.257c-.16-.487-.35-.962-.571-1.425a3.044 3.044 0 0 1-.226-.572c-.192-.767-.3-1.543-.187-2.337.027-.196.081-.398.015-.602a.885.885 0 0 0-.089.064 1.114 1.114 0 0 0-.105.113c-.47.582-.804 1.23-.929 1.973-.068.404-.138.81-.166 1.218a4.37 4.37 0 0 0 .096 1.324c.161.683.355 1.357.545 2.031.2.714.29 1.442.324 2.178.015.323.001.647-.004.97-.001.062-.032.096-.093.103-.083-.14-.058-.296-.063-.449-.025-.962-.141-1.91-.41-2.836-.204-.707-.39-1.42-.582-2.13a2.447 2.447 0 0 1-.047-.252c-.08-.512-.03-1.025.03-1.532.052-.409.139-.81.258-1.203a4.328 4.328 0 0 1 1.047-1.805.504.504 0 0 1 .158-.127c.24-.098.36-.306.48-.513.07-.118.13-.242.199-.36.117-.196.29-.335.485-.447.03-.018.088.01.134.015a.8.8 0 0 1-.037.141c-.014.029-.048.048-.07.073-.119.127-.255.24-.347.38zM110.135 151.428c.149.439.35.852.627 1.226.53.715 1.048 1.438 1.522 2.191.5.795.795 1.663.825 2.61-.037.007-.085.028-.095.016-.03-.037-.062-.085-.065-.13-.07-1.032-.552-1.903-1.097-2.737-.503-.772-1.056-1.512-1.59-2.265-.014-.021-.051-.027-.08-.04-.082.074-.054.185-.077.279a5.242 5.242 0 0 0-.133 1.885c.046.409.13.81.254 1.203.092.297.197.58.365.841.308.474.642.928 1.003 1.362.076.092.155.186.21.291.235.456.463.917.69 1.377.028.06.046.132-.06.158-.038-.053-.083-.106-.118-.164-.373-.632-.755-1.256-1.23-1.822-.253-.3-.472-.63-.694-.954a2.03 2.03 0 0 1-.236-.454c-.45-1.25-.628-2.52-.255-3.827-.029-.19.095-.308.202-.405-.068-.217-.135-.411-.188-.609a.922.922 0 0 1-.036-.302c.005-.069.07-.111.152-.085l.08.026c-.052.112-.012.224.023.33zM110.11 151.097l.01-.018.014.01-.006.014-.018-.006zM113.654 140.035c-.078.052-.121.029-.146-.022-.066-.13-.024-.27-.031-.405-.006-.116.053-.238-.073-.404-.04.137-.074.214-.088.296-.121.724-.235 1.446-.195 2.188.038.706.16 1.389.387 2.056.128.37.204.761.342 1.127.132.35.26.702.368 1.062.17.573.357 1.14.534 1.711.026.082.046.165.06.25.05.32.099.64.139.962.015.128.038.262-.013.385-.062-.005-.114.004-.124-.012a.494.494 0 0 1-.074-.185 10.408 10.408 0 0 0-.463-2.096c-.124-.39-.25-.778-.38-1.166-.13-.39-.28-.772-.396-1.165-.106-.36-.173-.732-.336-1.074-.058-.12-.066-.264-.093-.398-.031-.151-.047-.305-.088-.453a1.918 1.918 0 0 1-.076-.607 2.49 2.49 0 0 0-.019-.41c-.088-.74.07-1.463.165-2.19.009-.066.042-.129.07-.192l.368-.827c.252.117.274.13.233.273-.045.153-.041.303-.044.457-.006.286-.018.572-.028.84v-.001z"/><path d="M115.15 154.492c-.008-.186.084-.297.162-.404.3-.417.618-.817 1.008-1.158a9.362 9.362 0 0 1 1.729-1.185c.647-.35 1.354-.57 2.11-.582a6.268 6.268 0 0 0 2.157-.405c.878-.335 1.765-.66 2.511-1.26.054-.048.096-.039.127.025a.119.119 0 0 1 0 .096c-.055.134-.175.207-.287.287-.351.249-.745.417-1.136.591-.671.298-1.328.625-2.059.77-.37.073-.737.147-1.117.144-.12-.002-.24.016-.359.02a3.814 3.814 0 0 0-1.39.34c-.675.295-1.287.71-1.868 1.166-.473.37-.903.787-1.262 1.274-.079.107-.152.227-.326.28zM130.586 140.016a4.64 4.64 0 0 0 .713-.586c.277-.278.548-.56.816-.835.069.008.096.058.09.107a.54.54 0 0 1-.167.313c-.325.326-.624.683-.998.956-.51.374-1.032.732-1.55 1.096a1.68 1.68 0 0 1-.22.133c-1.166.581-2.358 1.106-3.618 1.45a9.944 9.944 0 0 0-2.543 1.086c-.042.025-.095.045-.143 0-.007-.03-.03-.072-.019-.089a.519.519 0 0 1 .141-.143c.846-.498 1.729-.906 2.689-1.133.2-.047.405-.093.587-.182.31-.151.64-.243.957-.371.793-.32 1.592-.632 2.304-1.12.322-.22.634-.462.96-.68l.001-.002zM112.536 142.385c.068.07.054.158.034.24-.042.166-.097.328-.136.495-.107.47-.17.945-.13 1.426.04.46.098.918.166 1.374.062.408.195.799.336 1.183.213.58.46 1.143.815 1.656.135.196.256.403.408.588.2.24.35.508.45.803.032.098.07.193.108.288.247.63.36 1.284.361 1.958 0 .025-.033.053-.054.076l-.04-.003c-.023-.044-.058-.09-.06-.137-.033-.535-.178-1.045-.353-1.545a5.575 5.575 0 0 0-.709-1.416c-.307-.43-.607-.869-.824-1.358a9.895 9.895 0 0 1-.813-3.117c-.048-.497-.063-.991.066-1.48.026-.099.026-.204.03-.306 0-.022-.023-.045-.04-.067.09-.2.18-.4.271-.598.022-.045.052-.083.114-.059v-.001zM118.034 134.897c.056.301.142.596.22.892.21.795.563 1.539.84 2.31.184.515.353 1.034.5 1.56.019.083.028.168.025.253 0 .24.005.48-.013.717-.021.272-.06.542-.103.811-.018.106-.08.19-.244.166.034-.333.069-.637.098-.942a3.322 3.322 0 0 0-.144-1.36 34.523 34.523 0 0 0-.583-1.64c-.299-.798-.61-1.591-.762-2.437-.084-.472-.182-.946-.127-1.425.049-.422.146-.839.228-1.256.009-.044.057-.08.095-.131.026.058.074.112.063.146-.116.347-.06.714-.132 1.063-.09.43-.04.853.04 1.273h-.001zM137.69 122.458c-.48.013-.953.075-1.43.123-.54.055-1.026.271-1.471.556-.535.34-.987.787-1.397 1.27-.132.157-.247.327-.372.489-.03.039-.066.066-.128.032.008-.046.004-.1.026-.14a5.268 5.268 0 0 1 1.79-1.934 3.694 3.694 0 0 1 1.675-.582c.56-.055 1.121-.098 1.683-.142.374-.03.746-.074 1.097-.222.078-.033.159-.062.246-.035.058.049.075.11.046.214a5.142 5.142 0 0 1-1.765.371zM128.26 125.294a.589.589 0 0 1-.022.008l.014-.021.01.009-.002.004zM129.885 124.013c.091-.077.18-.16.306-.172l.048.012c.011.029.029.068.018.092a.344.344 0 0 1-.089.123c-.52.443-1.04.888-1.566 1.323-.254.21-.48.439-.637.73a5.098 5.098 0 0 0-.58 1.848c-.052.425-.081.85-.132 1.273-.058.474-.128.947-.196 1.42-.012.084-.043.166-.132.207-.092-.049-.083-.13-.072-.214.093-.763.196-1.525.274-2.29.04-.426.115-.845.225-1.258.17-.621.406-1.197.84-1.681.032-.036.047-.088.069-.133.236-.087.415-.261.604-.419.342-.284.68-.574 1.02-.861zM117.94 139.866c-.141-.436-.269-.878-.482-1.29-.101-.195-.174-.407-.257-.612-.23-.568-.452-2.08-.387-2.668.006-.053.064-.073.143-.049.005.108.006.224.02.339.058.492.082.991.191 1.472.11.486.28.951.507 1.395.239.46.331.968.499 1.452a.703.703 0 0 1 .036.2c.028.683.066 1.366-.07 2.044-.053.267-.096.536-.146.803-.01.058-.062.082-.11.08-.023 0-.056-.04-.063-.07-.032-.135-.008-.267.021-.402.153-.723.19-1.457.173-2.191 0-.172-.026-.34-.075-.505v.002zM119.96 147.963c-.205.124-.413.242-.586.411-.05.049-.11.076-.192.047.015-.047.016-.107.046-.138.106-.108.214-.218.336-.307.344-.25.708-.475 1.04-.739.342-.27.733-.436 1.125-.605a8.04 8.04 0 0 1 .622-.239c.683-.23 1.376-.41 2.096-.48.254-.026.512-.05.758-.115.333-.088.67-.06 1.004-.123.002.058.016.11.002.12-.07.045-.143.1-.222.113-.436.08-.873.168-1.314.212-.46.048-.914.128-1.363.24-1.023.25-1.99.62-2.837 1.265-.164.126-.34.232-.515.338zM115.208 136.23a.113.113 0 0 1 .094.013c.02.016.036.064.026.085-.066.139-.119.29-.216.404a1.263 1.263 0 0 0-.23.45c-.076.247-.18.479-.284.712-.126.283-.198.582-.27.88-.029.115-.054.231-.083.346-.194.75-.288 1.513-.194 2.284.077.626.133 1.257.292 1.87.016.06.043.136-.077.197-.215-.606-.28-1.218-.387-1.822a5.274 5.274 0 0 1-.038-1.628c.04-.304.11-.603.168-.904.131-.674.383-1.31.62-1.95.095-.254.234-.493.361-.734.048-.087.113-.173.218-.203zM127.389 139.366c-.914.165-1.785.442-2.596.907-.205.119-.432.201-.63.338a.201.201 0 0 1-.198.025c-.042-.099.015-.157.09-.201 1.024-.595 2.077-1.112 3.265-1.291.523-.08 1.041-.215 1.572-.176.317.024.61-.05.9-.135.292-.084.578-.21.866-.317.063-.026.128-.046.195-.061a.094.094 0 0 1 .082.031c.038.056.028.101-.03.136a1.372 1.372 0 0 1-.268.142c-.24.092-.484.168-.722.262-.289.117-.589.173-.9.167-.55-.012-1.088.076-1.627.173z"/><path d="M116.4 153.776c.734-.643 1.548-1.178 2.356-1.719.156-.104.316-.196.486-.22.068.057.07.114.037.148-.06.06-.127.111-.2.154-.855.534-1.684 1.103-2.453 1.76a9.661 9.661 0 0 0-1.502 1.595c-.202.273-.388.559-.593.855-.13-.132-.094-.227-.035-.316.208-.311.408-.628.632-.928.37-.494.81-.923 1.271-1.329zM122.72 147.998c-.287.05-.569.12-.853.18a.15.15 0 0 1-.099-.008c-.024-.013-.037-.05-.047-.079l.018-.045a1.33 1.33 0 0 1 .19-.065c1.081-.252 2.158-.518 3.168-1.004.461-.222.947-.396 1.359-.711.272-.208.544-.414.818-.618.077-.057.147-.15.265-.088l.01.051c-.032.06-.059.124-.104.17a5.37 5.37 0 0 1-1.274.945c-1.083.6-2.225 1.058-3.452 1.273v-.001zM118.728 133.037c-.073.4-.074.813-.074 1.222-.002.205.018.408.058.609.138.684.246 1.374.443 2.045l-.014.049c-.14.054-.189-.05-.213-.146a95.695 95.695 0 0 1-.421-1.739 2.664 2.664 0 0 1-.066-.507c-.035-1.016.093-2.01.446-2.97.13-.353.342-.663.555-.97.04-.057.112-.077.197-.046.003.18-.116.311-.212.442-.438.603-.573 1.31-.7 2.013v-.002zM136.255 129.325c-.537.488-1.147.86-1.794 1.18a4.813 4.813 0 0 1-1.868.513c-.205.012-.407.047-.61.073-.24.03-.476.064-.714.09-.073.007-.128-.035-.152-.12.037-.026.077-.07.12-.077.405-.064.81-.144 1.218-.178a5.771 5.771 0 0 0 2.643-.903c.39-.246.754-.53 1.13-.797.084-.059.17-.115.256-.169.048-.03.118.001.117.05-.002.032.002.078-.017.093-.107.086-.228.154-.329.245zM136.436 125.9c-.776.713-1.738.992-2.745 1.16l-.047-.012c-.042-.07-.041-.142.038-.167.21-.068.424-.131.64-.181.784-.18 1.485-.527 2.07-1.076.334-.314.656-.643.91-1.039.147-.23.291-.461.413-.706.077-.156.163-.3.347-.346.024.071.008.136-.025.198-.137.257-.264.52-.413.77-.318.531-.734.983-1.188 1.4zM110.06 150.764c-.204-.56-.23-1.138-.184-1.723.007-.097.015-.21.134-.255.061-.023.092.072.079.245a3.664 3.664 0 0 0 .546 2.354c.314.511.686.977 1.09 1.42.242.265.438.57.602.893.034.066.078.148.005.222-.022-.003-.047 0-.052-.01-.273-.477-.63-.886-1-1.29-.404-.44-.792-.899-1.047-1.45-.016-.035-.063-.056-.1-.082.049-.12-.036-.219-.073-.324zM112.9 143.3c-.005.09.003.194-.02.29a2.2 2.2 0 0 0-.007.867c.089.556.182 1.111.388 1.642.155.398.278.808.413 1.214.13.39.28.77.517 1.11.048.07.104.139.09.233l-.024.032-.049.007c-.043-.025-.096-.046-.122-.084-.2-.297-.388-.601-.499-.949a23.533 23.533 0 0 0-.487-1.405c-.253-.643-.372-1.312-.466-1.991-.046-.334.01-.646.12-.954.017-.047.08-.052.147-.013z"/><path d="m120.34 148.271-.029-.03-.004-.048c.02-.026.034-.062.062-.078a7.665 7.665 0 0 1 2.16-.905c.464-.117.917-.263 1.372-.404.275-.085.555-.155.833-.23.066-.024.104-.001.113.069.014.058-.021.093-.07.116l-.046.02c-.454.148-.905.302-1.36.44-.506.154-1.02.282-1.523.44a6.242 6.242 0 0 0-1.126.484c-.117.064-.236.142-.382.127zM111.347 150.004c-.249-.583-.367-1.207-.56-1.808-.015-.047-.009-.101-.012-.152a6.263 6.263 0 0 1 0-1.023c.039-.423.026-.85.128-1.267.06-.246.116-.496.361-.643-.01.065-.024.13-.042.193-.241.708-.183 1.452-.255 2.18-.01.1.015.204.023.306.04.513.158 1.01.313 1.5.062.196.12.393.17.591.018.068-.008.135-.09.156l-.036-.033zM129.804 138.547a7.626 7.626 0 0 0-2.917.39c-.096.034-.194.082-.293.085-.316.008-.595.14-.882.244-.125.045-.248.094-.363.138-.048-.073-.02-.122.023-.147.28-.165.57-.307.89-.38.383-.088.77-.166 1.14-.289.858-.282 1.728-.33 2.596-.241.048.071.048.128.001.153a.399.399 0 0 1-.195.047zM131.813 138.28c.12-.097.243-.192.426-.19.017.142-.063.184-.13.234-.397.296-.82.561-1.186.892-.54.49-1.18.802-1.812 1.136a.514.514 0 0 1-.191.065c-.076.006-.174.011-.16-.12a5.518 5.518 0 0 0 1.68-.955c.447-.37.922-.7 1.373-1.063zM130.068 131.275a.735.735 0 0 1 .446-.086c.024.002.054.043.06.071a.096.096 0 0 1-.026.088.576.576 0 0 1-.18.094c-.353.09-.664.26-.961.47-.348.244-.71.471-1.064.706-.099-.054-.123-.137-.036-.2.403-.287.811-.568 1.223-.842.17-.114.358-.202.538-.3zM119.093 141.437a5.4 5.4 0 0 1-.141 2.028.98.98 0 0 1-.118.28c-.037.057-.096.145-.213.047a6.236 6.236 0 0 0 .3-2.477c.068 0 .093-.008.099 0 .028.039.069.078.073.123zM106.735 156.772l-.003.006-.01-.014a.02.02 0 0 0 .003-.01l.01.018z"/><path d="M106.848 156.222c.076.277.132.522.213.759.081.244.18.48.294.71.124.244.274.475.426.701.14.212.3.412.453.62-.112.063-.176 0-.224-.062a9.483 9.483 0 0 1-.431-.575c-.307-.453-.616-.906-.759-1.447-.014-.055-.054-.104-.086-.155.099-.155-.052-.36.113-.55zM111.29 165.405c-.433-.596-1.048-.925-1.743-1.14a3.542 3.542 0 0 1-1.397-.818c-.011-.011.008-.055.013-.082.06-.035.09.015.13.041.357.234.73.452 1.144.555.453.114.859.32 1.263.534.308.164.522.429.691.728.048.082.033.162-.1.181v.001zM109.18 164.276c.253.087.475.26.712.39.105.056.22.094.329.146.06.03.117.067.169.111.02.026.025.055.015.086-.012.024-.048.056-.073.055-.194-.006-.362-.093-.525-.185a10.63 10.63 0 0 0-1.138-.578 2.05 2.05 0 0 1-.316-.17c-.07-.043-.096-.105-.076-.185.048.009.1.01.142.03.248.116.502.212.76.303l.002-.003zM107.518 162.968c-.04-.023-.09-.041-.125-.075a24.03 24.03 0 0 1-.535-.524c-.017-.017-.018-.074-.003-.09.034-.036.085-.05.129-.01.207.192.415.384.617.58.017.016.019.068.006.092-.01.018-.054.017-.09.027z"/></g></g></g></g></g><clipPath id="i"><path transform="scale(.24)" d="M35.958 257.314h1490.625V1304.19H35.958z" fill-rule="evenodd"/></clipPath><g clip-path="url(#i)" fill="#009736"><path d="m194.238 209.81-.49-112.11c42.775-35.952 114.887-20.169 143.32 8.785-22.573-17.967-90.37-37.666-134.392-3.814l-8.438 107.14M180.787 209.81l.49-112.11c-42.774-35.952-114.887-20.169-143.32 8.785 22.574-17.967 90.37-37.666 134.392-3.814l8.438 107.14"/></g><clipPath id="j"><path transform="scale(.24)" d="M809.397 591.644h717.053v672.583H809.397z" fill-rule="evenodd"/></clipPath><g clip-path="url(#j)"><path d="M194.337 270.532c25.563-17.941 60.826-20.758 91.11-13.092 30.281 7.665 57.252 25.168 80.9 45.561l-20.32-160.757 12.443 141.71s-35.126-29.036-82.796-34.934c-57.273-7.086-81.337 21.512-81.337 21.512" fill="#009736"/></g><clipPath id="k"><path transform="scale(.24)" d="M35.958 257.314h1490.625V1304.19H35.958z" fill-rule="evenodd"/></clipPath><g clip-path="url(#k)"><path d="M180.688 270.532c-25.563-17.941-60.825-20.758-91.11-13.092-30.281 7.665-57.252 25.168-80.9 45.561l20.32-160.757-12.442 141.71S51.68 254.918 99.35 249.02c57.273-7.086 81.337 21.512 81.337 21.512" fill="#009736"/></g><clipPath id="l"><path transform="scale(.24)" d="M66.519 1116.151h1428.61v188.038H66.52z" fill-rule="evenodd"/></clipPath><g clip-path="url(#l)"><path d="M263.518 268.136c-36.16-.982-60.823 15.394-70.964 23.715a7.943 7.943 0 0 1-10.083 0c-10.14-8.321-34.804-24.697-70.964-23.715-44.928 1.219-82.894 32.566-95.119 44.879H28.26c15.594-14.533 46.12-35.3 84.002-35.174 26.174.087 46.054 9.452 58.79 18.029a7.636 7.636 0 0 1 3.375 6.337c0 4.22 3.423 7.64 7.647 7.64h10.877c4.224 0 7.648-3.42 7.648-7.64a7.636 7.636 0 0 1 3.375-6.337c12.735-8.577 32.616-17.942 58.79-18.029 37.882-.127 72.693 21.293 90.236 35.174h5.637c-12.225-12.313-50.191-43.66-95.119-44.88" fill="#ff0800"/></g><clipPath id="m"><path transform="scale(.24)" d="M0 0h1562.5v1562.5H0z" fill-rule="evenodd"/></clipPath><g clip-path="url(#m)"><symbol id="n"><path d="M.519.293H.15V.078A.23.23 0 0 1 0 0v.37h.06v.416h.29A.118.118 0 0 0 .38.782C.41.774.424.752.424.72V.371H.52V.293M.27.371V.7c0 .023-.02.035-.061.035V.37h.061z"/></symbol><symbol id="o"><path d="M0 0v.077h.094V.85a.244.244 0 0 1 .15.077v-.85H.34V0H0z"/></symbol><symbol id="p"><path d="M.165.126C.165.104.159.09.148.084L0 0a.08.08 0 0 0 .007.03.086.086 0 0 0 .025.02l.133.076z"/></symbol><symbol id="q"><path d="M.538 0H0v.077h.215A.158.158 0 0 1 .09.162v.276c0 .04.063.059.188.059.118 0 .177-.02.177-.059V.162A.172.172 0 0 1 .328.077h.21V0M.302.077v.35c0 .011-.01.017-.03.017-.02 0-.03-.006-.03-.017v-.35h.06z"/></symbol><symbol id="r"><path d="M0 0v.077h.094v.767a.24.24 0 0 1 .15.078V0H0z"/></symbol><symbol id="s"><path d="M.151.056A.117.117 0 0 1 .196 0C.066 0 0 .033 0 .098v.849a.239.239 0 0 1 .151.077V.056z"/></symbol><use xlink:href="#n" transform="matrix(74.28584 0 0 -74.28584 35.57 225.98)" fill="#1c1d1c"/><use xlink:href="#o" transform="matrix(74.28584 0 0 -74.28584 69.882 204.18)" fill="#1c1d1c"/><use xlink:href="#p" transform="matrix(74.28584 0 0 -74.28584 105.501 226.96)" fill="#1c1d1c"/><use xlink:href="#q" transform="matrix(74.28584 0 0 -74.28584 91.028 204.18)" fill="#1c1d1c"/><use xlink:href="#r" transform="matrix(74.28584 0 0 -74.28584 126.792 204.18)" fill="#1c1d1c"/><use xlink:href="#s" transform="matrix(74.28584 0 0 -74.28584 148.555 211.399)" fill="#1c1d1c"/><symbol id="t"><path d="M.305.666V.614C.305.596.296.587.278.587H.226C.208.587.2.597.2.614v.052c0 .017.008.026.026.026h.052C.296.692.305.683.305.666m-.123 0V.614C.182.596.172.587.155.587H.102c-.017 0-.026.01-.026.027v.052c0 .017.009.026.026.026h.053C.173.692.182.683.182.666M.46 0H0v.43c0 .05.04.074.118.074h.247V.077H.46V0M.212.077v.37A.084.084 0 0 1 .174.438C.16.431.151.422.151.412V.077h.061z"/></symbol><symbol id="u"><path d="M0 .174v.077h.089v.344C.152.605.203.63.24.673V.174H0M.14.026C.14.01.13 0 .111 0H.06C.042 0 .033.009.033.026V.08c0 .017.009.026.027.026h.052C.13.105.14.096.14.079V.026m.114 0C.253.01.244 0 .227 0H.174C.156 0 .147.009.147.026V.08c0 .017.01.026.027.026h.053C.244.105.253.096.253.079V.026z"/></symbol><symbol id="v"><path d="M.325.616V.62.095C.326.047.283.017.194.004A.735.735 0 0 0 0 .032C.117.028.175.054.173.11v.433a.238.238 0 0 1 .152.08V.615z"/></symbol><symbol id="w"><path d="M0 0v.926A.24.24 0 0 1 .152.848v-.77h.093V0H0z"/></symbol><symbol id="x"><path d="M.459.496.46.5V.077h.061v.345A.24.24 0 0 1 .674.5V0H0v.077h.093v.346a.235.235 0 0 1 .152.078V.077h.062v.346a.239.239 0 0 1 .152.078V.496z"/></symbol><use xlink:href="#t" transform="matrix(74.28584 0 0 -74.28584 202.47 204.18)" fill="#1c1d1c"/><use xlink:href="#u" transform="matrix(74.28584 0 0 -74.28584 231.595 217.13)" fill="#1c1d1c"/><use xlink:href="#v" transform="matrix(74.28584 0 0 -74.28584 252.996 212.668)" fill="#1c1d1c"/><use xlink:href="#w" transform="matrix(74.28584 0 0 -74.28584 280.707 204.18)" fill="#1c1d1c"/><use xlink:href="#x" transform="matrix(74.28584 0 0 -74.28584 294.164 204.144)" fill="#1c1d1c"/></g><clipPath id="y"><path transform="scale(.24)" d="M0 0h1562.5v1593.75H0z"/></clipPath><g clip-path="url(#y)"><clipPath id="z"><path transform="scale(.24)" d="M0 0h1562.5v1562.5H0z"/></clipPath><g clip-path="url(#z)"><clipPath id="A"><path transform="scale(.24)" d="M0 0h1562.5v1562.5H0z"/></clipPath><g clip-path="url(#A)"><clipPath id="B"><path transform="scale(.24)" d="m1137.424 477.034 193.592-7.807 7.808 193.592-193.592 7.808-7.808-193.593z"/></clipPath><g clip-path="url(#B)"><clipPath id="C"><path transform="scale(.24)" d="m1137.424 477.034 193.592-7.807 7.808 193.592-193.592 7.808-7.808-193.593z"/></clipPath><g clip-path="url(#C)"><clipPath id="D"><path transform="scale(.24)" d="m1137.424 477.034 193.592-7.807 7.808 193.592-193.592 7.808-7.808-193.593z"/></clipPath><g clip-path="url(#D)"><path stroke-width="1.5122" fill="none" stroke="#000" d="M275.471 117.682c.101.104.189.218.263.342l.132.218c.208.326.388.667.54 1.022.061.141.135.342.222.603l.225.669c.05.149.098.307.141.476.042.16.085.32.13.48.04.142.074.294.102.455.037.207.07.36.1.457.069.22.122.442.16.668l.094.558c.045.226.09.452.137.678.015.075.03.172.042.291.01.098.025.196.044.293"/><path stroke-width="1.5122" fill="none" stroke="#6eb192" d="M277.803 124.892a.5.5 0 0 0 .052.279"/><path stroke-width="1.5122" fill="none" stroke="#817c63" d="M277.855 125.17c.04.196.089.39.145.582.022.076.048.241.079.497.013.108.036.222.069.34.085.314.146.632.18.955.01.093.023.175.04.246.028.123.048.203.061.242.065.195.107.34.127.434.055.264.119.524.192.782.015.055.05.194.102.418.037.154.086.31.148.47.086.22.209.559.369 1.015a.182.182 0 0 1 .007.05c0 .02.005.036.015.051l.036.06c.056.142.111.285.164.428.03.084.062.186.094.305.028.102.058.204.09.305.037.122.054.238.05.35a.272.272 0 0 0 .015.105.476.476 0 0 1 .028.098 5.229 5.229 0 0 0 .03.228 1.439 1.439 0 0 1-.004-.263c-.006.039.003.069.026.09a.034.034 0 0 1 .011.027.618.618 0 0 0 .017.174c.019.074.03.13.031.168.008.127.02.253.039.38"/><path stroke-width="1.5122" fill="none" stroke="#4ab68a" d="M280.016 133.706c-.004.047-.013.046-.027-.004-.004-.012-.005-.012-.005 0l.014.544"/><path stroke-width="1.5122" fill="none" stroke="#817c63" d="M279.998 134.246a.93.93 0 0 0-.071.385c.003.136.004.217.001.244-.012.126-.033.25-.062.373a2.49 2.49 0 0 1-.11.317c-.043.106-.08.212-.112.317"/><path stroke-width="1.5122" fill="none" stroke="#4ab68a" d="M279.644 135.882a.348.348 0 0 0-.066.147"/><path stroke-width="1.5122" fill="none" stroke="#817c63" d="M279.578 136.029a.102.102 0 0 0-.014.049"/><path stroke-width="1.5122" fill="none" stroke="#4ab68a" d="m279.564 136.078-.057.179"/><path stroke-width="1.5122" fill="none" stroke="#817c63" d="m279.507 136.257-.083.324"/><path stroke-width="1.5122" fill="none" stroke="#4ab68a" d="M279.424 136.581a.488.488 0 0 0-.055.173"/><path stroke-width="1.5122" fill="none" stroke="#817c63" d="M279.369 136.754a8.402 8.402 0 0 0-.17.752"/><path stroke-width="1.5122" fill="none" stroke="#4ab68a" d="M279.198 137.506c0-.077-.006-.075-.02.006a.071.071 0 0 1-.006.018.213.213 0 0 0-.015.139"/><path stroke-width="1.5122" fill="none" stroke="#817c63" d="M279.157 137.669a.257.257 0 0 0-.014.135c-.013-.03-.016-.004-.007.078a.057.057 0 0 1-.002.025 1.3 1.3 0 0 0-.056.329.93.93 0 0 1-.013.125 7.39 7.39 0 0 0-.023.124"/><path stroke-width="1.5122" fill="none" stroke="#4ab68a" d="M279.042 138.485a.677.677 0 0 0-.045.25"/><path stroke-width="1.5122" fill="none" stroke="#817c63" d="M278.997 138.735a.53.53 0 0 0-.023.219.398.398 0 0 1-.012.169"/><path stroke-width="1.5122" fill="none" stroke="#4ab68a" d="M278.962 139.123a9.287 9.287 0 0 0-.023.43c-.005.149-.015.292-.03.427a13.258 13.258 0 0 0-.074 1.695.047.047 0 0 1-.01.028.068.068 0 0 0-.013.045l.014.273"/><path stroke-width="1.5122" fill="none" stroke="#817c63" d="M278.826 142.02a.283.283 0 0 1-.002.11 1.117 1.117 0 0 0-.02.107c-.008.09-.022.18-.044.269"/><path stroke-width="1.5122" fill="none" stroke="#6eb192" d="M278.76 142.506c-.007-.052-.013-.058-.017-.018-.019.19-.035.383-.049.578"/><path stroke-width="1.5122" fill="none" stroke="#817c63" d="M278.694 143.066a.975.975 0 0 1-.052.192.813.813 0 0 0-.026.133c-.006.046-.015.09-.026.133-.059.233-.106.468-.14.706-.004.028-.008.026-.012-.005 0-.006-.002-.006-.003 0-.034.134-.07.309-.109.526-.016.09-.045.2-.086.33"/><path stroke-width="1.5122" fill="none" stroke="#4ab68a" d="M278.24 145.082a.348.348 0 0 0-.053.219"/><path stroke-width="1.5122" fill="none" stroke="#817c63" d="m278.187 145.3-.03.107"/><path stroke-width="1.5122" fill="none" stroke="#4ab68a" d="M278.156 145.407a.294.294 0 0 1-.031.108.164.164 0 0 0-.013.118"/><path stroke-width="1.5122" fill="none" stroke="#817c63" d="m278.112 145.633-.057.18"/><path stroke-width="1.5122" fill="none" stroke="#4ab68a" d="M278.055 145.812c-.006-.093-.01-.107-.01-.042a.063.063 0 0 1-.005.02 1.33 1.33 0 0 0-.068.277"/><path stroke-width="1.5122" fill="none" stroke="#817c63" d="m277.972 146.067-.098.299"/><path stroke-width="1.5122" fill="none" stroke="#6eb192" d="m277.874 146.366-.106.31"/><path stroke-width="1.5122" fill="none" stroke="#817c63" d="m277.768 146.676-.115.398"/><path stroke-width="1.5122" fill="none" stroke="#4ab68a" d="M277.653 147.074a.444.444 0 0 0-.063.186"/><path stroke-width="1.5122" fill="none" stroke="#817c63" d="M277.59 147.26c-.048.13-.092.26-.135.392-.01.032-.038.107-.083.227a89.713 89.713 0 0 1-.537 1.381c-.036.09-.087.19-.152.301a.115.115 0 0 0-.02.063c.002.035.022.051.06.05.174-.002.36-.049.555-.14"/><path stroke-width="1.5122" fill="none" stroke="#14b46d" d="M277.278 149.535c.126-.027.241-.037.346-.033.179.007.357.013.536.018.175.004.353.014.536.028.326.027.654.047.981.062.17.008.34.024.507.05.222.032.386.053.491.062l.718.058a6 6 0 0 1 .616.083c.132.025.354.037.668.036.53-.001 1.06-.013 1.59-.036.296-.013.51-.018.642-.015.354.008.755.04 1.203.097.596.075 1.122.19 1.576.348.364.126.863.313 1.494.56.86.338 1.806.645 2.837.923.346.093.696.16 1.052.2.201.023.403.045.605.066.331.034.664.046.997.035.32-.011.64-.007.959.012.045.003.258.023.64.061.383.039.768.055 1.154.048.345-.007.69-.012 1.036-.017.145-.002.327.007.547.026.325.027.712.053 1.162.077.218.01.43.031.638.06.321.044.642.088.963.13.222.03.434.06.636.094l.693.113c.225.037.42.063.586.078.245.022.443.032.592.03.873-.01 1.913-.062 3.12-.155.354-.027.809-.041 1.364-.041.37 0 .757-.04 1.163-.12l.457-.09c.263-.043.528-.07.795-.08l.62-.026a4.14 4.14 0 0 1 .62.011c.185.022.367.058.548.108l.25.065c.088.023.175.052.26.087a7.048 7.048 0 0 1 1.71.999l.173.136c.366.284.735.564 1.108.84.075.055.184.121.326.198.055.03.106.043.154.04a.04.04 0 0 0 .028-.014.492.492 0 0 0 .095-.137c.177-.402.341-.753.492-1.053.375-.746.646-1.519.813-2.318.024-.114.04-.23.048-.346.02-.292.032-.585.034-.877a7.477 7.477 0 0 0-.021-.642 13.137 13.137 0 0 0-.133-1.11l-.028-.129a.772.772 0 0 1-.013-.234.154.154 0 0 0-.01-.07.294.294 0 0 1-.02-.066.463.463 0 0 0-.119-.244.063.063 0 0 1-.013-.064c.021-.066.004-.125-.052-.18"/><path stroke-width="1.5122" fill="none" stroke="#59d3a8" d="M318.048 147.278a2.79 2.79 0 0 0-.046-.447.313.313 0 0 1-.005-.123"/><path stroke-width="1.5122" fill="none" stroke="#4ab68a" d="M317.997 146.708a.434.434 0 0 0-.039-.305"/><path stroke-width="1.5122" fill="none" stroke="#59d3a8" d="M317.958 146.403a5.203 5.203 0 0 0-.091-.372.196.196 0 0 0-.127-.134c-.01-.004-.015-.011-.016-.021l-.003-.075a.337.337 0 0 1 .011-.09.441.441 0 0 0 .004-.183"/><path stroke-width="1.5122" fill="none" stroke="#85edcb" d="M317.736 145.528a4.9 4.9 0 0 0 .039-.594 53.825 53.825 0 0 1-.07-1.958 12.448 12.448 0 0 0-.018-.506 1 1 0 0 1 .039-.393c.074-.2.135-.402.18-.61.03-.128.054-.32.076-.575.02-.237.046-.473.08-.708a1.856 1.856 0 0 0 0-.493 20.837 20.837 0 0 0-.273-1.658 7.345 7.345 0 0 1-.1-.609 7.721 7.721 0 0 0-.158-.692 1.398 1.398 0 0 1-.042-.291l-.015-.326"/><path stroke-width="1.5122" fill="none" stroke="#4ab68a" d="M317.474 136.115a.193.193 0 0 1 .06-.13"/><path stroke-width="1.5122" fill="none" stroke="#147b59" d="M317.534 135.986c.04-.046.048-.092.02-.14a55.07 55.07 0 0 1-.029-.052 3.742 3.742 0 0 0-.137-.273 2.687 2.687 0 0 1-.136-.273 5.462 5.462 0 0 1-.169-.482 87.542 87.542 0 0 0-.104-.332 2.928 2.928 0 0 1-.103-.456 8.587 8.587 0 0 1-.084-1.025 8.372 8.372 0 0 1 .002-.562c.01-.21.038-.396.083-.558a6.54 6.54 0 0 1 .18-.576c.135-.347.347-.85.634-1.511.156-.358.306-.717.451-1.079.037-.09.065-.191.086-.302.01-.05-.01-.085-.057-.103a34.195 34.195 0 0 0-.983-.362 5.342 5.342 0 0 1-.701-.308 30.913 30.913 0 0 0-1.32-.637 4.829 4.829 0 0 0-1.058-.315 5.668 5.668 0 0 0-.222-.03 1.65 1.65 0 0 1-.22-.04 3.548 3.548 0 0 0-.623-.119c-.254-.021-.48-.047-.679-.076a4.425 4.425 0 0 0-.471-.05 13.64 13.64 0 0 0-1.16.01c-.455.023-.993.038-1.614.044a6.761 6.761 0 0 1-.717-.03l-.417-.058a3.944 3.944 0 0 0-.575-.037 4.623 4.623 0 0 1-1.024-.106 2.282 2.282 0 0 0-.217-.037 7.122 7.122 0 0 0-.22-.024 3.062 3.062 0 0 1-.639-.111 2.503 2.503 0 0 0-.598-.08 3.986 3.986 0 0 1-.432-.063 3.732 3.732 0 0 0-.432-.052 6.641 6.641 0 0 1-.708-.065c-.4-.085-.79-.2-1.17-.347-.39-.15-.688-.263-.894-.337-.47-.17-.964-.316-1.485-.437a9.174 9.174 0 0 1-.765-.206 4.18 4.18 0 0 1-1.455-.841 3.285 3.285 0 0 0-1.224-.684 27.078 27.078 0 0 0-1.57-.423c-.49-.118-.982-.234-1.473-.35a7.022 7.022 0 0 0-.364-.073 8.613 8.613 0 0 1-.365-.073c-.258-.057-.439-.095-.544-.115-.537-.1-1.074-.204-1.61-.312a10.06 10.06 0 0 0-.312-.055 5.082 5.082 0 0 1-.313-.061l-.33-.076-1.47-.31a25.845 25.845 0 0 1-.255-.06 4.343 4.343 0 0 0-.257-.05 5.695 5.695 0 0 1-.383-.076c-.202-.049-.405-.096-.608-.14a63.262 63.262 0 0 1-.415-.1 9.737 9.737 0 0 0-.418-.089 4.76 4.76 0 0 1-.387-.095 6.566 6.566 0 0 0-.386-.098c-.311-.068-.654-.151-1.028-.248-1.235-.321-2.26-.59-3.076-.809a20.11 20.11 0 0 1-.619-.176c-.499-.151-.997-.304-1.496-.458l-.258-.086a2.84 2.84 0 0 0-.557-.125 1.18 1.18 0 0 1-.35-.105 41.18 41.18 0 0 1-.858-.402"/><path stroke-width="1.5122" fill="none" stroke="#817c63" d="m276.446 117.899-.12-.064"/><path stroke-width="1.5122" fill="none" stroke="#6eb192" d="M276.326 117.835a1.66 1.66 0 0 0-.287-.213.698.698 0 0 1-.128-.1.716.716 0 0 0-.258-.162"/><path stroke-width="1.5122" fill="none" stroke="#4ab68a" d="M275.653 117.36a1.51 1.51 0 0 0-.31-.199"/><path stroke-width="1.5122" fill="none" stroke="#6eb192" d="M275.343 117.161a.518.518 0 0 0-.214-.12c-.038-.01-.068-.012-.089-.003-.032.013-.048.044-.047.093a.295.295 0 0 0 .079.215c.124.122.258.234.4.336"/><path stroke-width="1.5122" fill="none" stroke="#a88a83" d="M275.343 117.161c.053.052.1.117.142.195.008.014.019.021.032.02l.136-.016"/><path stroke-width="1.5122" fill="none" stroke="#df505c" d="M276.326 117.835a1.15 1.15 0 0 1-.476-.16.472.472 0 0 0-.18-.055.067.067 0 0 1-.028-.011c-.069-.045-.128-.038-.179.023-.006.007-.005.015.001.025a.05.05 0 0 1 .007.025"/><path stroke-width="1.5122" fill="none" stroke="#851a23" d="m276.446 117.899-.081-.003c-.012 0-.018.005-.018.016l-.005.217c0 .01.004.019.014.026.028.02.076.05.144.088.063.036.135.092.217.169a1.7 1.7 0 0 0 .174.138c.064.046.12.096.167.15.048.056.094.105.139.147l.145.138c.107.109.218.213.334.312"/><path stroke-width="1.5122" fill="none" stroke="#b01d26" d="M277.676 119.297c.065.078.139.148.22.212"/><path stroke-width="1.5122" fill="none" stroke="#851a23" d="m277.897 119.509.358.34"/><path stroke-width="1.5122" fill="none" stroke="#b01d26" d="M278.255 119.849c.061.09.135.165.222.227"/><path stroke-width="1.5122" fill="none" stroke="#851a23" d="M278.477 120.076c.134.138.273.27.417.397.111.097.224.201.339.313.093.092.206.197.337.316.249.227.692.657 1.331 1.29.083.082.237.23.463.445.205.196.405.397.6.603"/><path stroke-width="1.5122" fill="none" stroke="#b01d26" d="M281.964 123.44c.253.276.518.54.795.793"/><path stroke-width="1.5122" fill="none" stroke="#851a23" d="M282.76 124.233c.208.24.354.404.437.49.537.552 1.06 1.118 1.568 1.696.13.149.269.313.414.492.648.8 1.04 1.29 1.172 1.467.555.737 1.114 1.47 1.68 2.201.013.018.038.032.075.043l.12.035"/><path stroke-width="1.5122" fill="none" stroke="#f68c95" d="m288.225 130.657-.082.004c-.01 0-.017.006-.019.017a.205.205 0 0 0 .004.082c.005.019.021.04.047.062.04.034.07.062.09.086.317.37.635.74.953 1.108.135.156.277.317.425.482a126.5 126.5 0 0 1 2.067 2.328l.453.54c.334.395.653.801.958 1.22l.065.083a.58.58 0 0 1 .073.117c.014.03.007.055-.02.073-.277.184-.543.353-.796.509-.371.227-.728.474-1.07.742-.39.304-.694.528-.914.672a8.02 8.02 0 0 1-.604.362c-.243.13-.459.255-.648.375a2.969 2.969 0 0 0-.542.454 7.422 7.422 0 0 0-.405.497 9.796 9.796 0 0 1-.863.979"/><path stroke-width="1.5122" fill="none" stroke="#df505c" d="M287.397 141.449c-.073.077-.063.11.03.098"/><path stroke-width="1.5122" fill="none" stroke="#855337" d="M287.427 141.547a.348.348 0 0 1-.145.057.03.03 0 0 0-.022.016.456.456 0 0 1-.071.102.584.584 0 0 0-.075.095c-.048.082-.1.16-.159.233"/><path stroke-width="1.5122" fill="none" stroke="#b01d26" d="M286.955 142.05a1.59 1.59 0 0 0-.208.288 3.799 3.799 0 0 1-.089.14.585.585 0 0 0-.07.154"/><path stroke-width="1.5122" fill="none" stroke="#855337" d="M286.588 142.632c-.133.157-.258.32-.375.49-.07.1-.191.204-.365.312"/><path stroke-width="1.5122" fill="none" stroke="#b01d26" d="M285.848 143.434a.168.168 0 0 0-.148.108"/><path stroke-width="1.5122" fill="none" stroke="#855337" d="M285.7 143.542a.09.09 0 0 1-.063.043.063.063 0 0 0-.029.012 3.422 3.422 0 0 0-.154.131 3.14 3.14 0 0 1-.155.13 1.55 1.55 0 0 0-.134.12 1.541 1.541 0 0 1-.133.121l-.22.174a1.546 1.546 0 0 0-.202.194l-.167.192a1.69 1.69 0 0 0-.146.209c-.2.326-.48.566-.842.719"/><path stroke-width="1.5122" fill="none" stroke="#b03d3b" d="M283.455 145.587a.373.373 0 0 0-.174.068.054.054 0 0 1-.029.01.193.193 0 0 0-.14.07"/><path stroke-width="1.5122" fill="none" stroke="#855337" d="M283.112 145.736c-.086.034-.17.074-.252.12a.307.307 0 0 1-.106.033.263.263 0 0 0-.108.035.253.253 0 0 1-.103.044.057.057 0 0 0-.028.012.34.34 0 0 1-.154.065c-.04.006-.04.01 0 .013.005 0 .007.002.005.007l-.002.006c-.003.008-.01.012-.02.014a.85.85 0 0 0-.357.144.089.089 0 0 1-.029.012.055.055 0 0 0-.042.043c-.002.01-.008.015-.018.016a.142.142 0 0 0-.102.054.053.053 0 0 1-.025.018l-.08.027a.052.052 0 0 0-.025.018.076.076 0 0 1-.052.03.088.088 0 0 0-.03.01 1.85 1.85 0 0 1-.325.148.38.38 0 0 0-.112.065.513.513 0 0 1-.134.077.076.076 0 0 0-.026.017.176.176 0 0 1-.089.048.035.035 0 0 0-.023.018c-.016.026-.042.04-.079.045a.333.333 0 0 0-.147.06.126.126 0 0 1-.028.011.03.03 0 0 0-.022.023c-.003.01-.008.018-.017.022l-.274.116c-.01.004-.01.01 0 .016.022.015.009.02-.04.016a.134.134 0 0 0-.031 0 .234.234 0 0 0-.14.067.215.215 0 0 1-.093.054c-.05.015-.08.035-.087.06a.06.06 0 0 1-.014.028.74.74 0 0 1-.182.127 1.408 1.408 0 0 1-.07.018.095.095 0 0 0-.06.049c-.004.006-.002.008.005.008.101-.003.103 0 .005.01-.003 0-.003 0 0 0 .056.005.053.012-.008.02-.05.007-.108.042-.172.106"/><path stroke-width="1.5122" fill="none" stroke="#b03d3b" d="M279.421 147.686c-.059-.013-.106.003-.14.049a.041.041 0 0 1-.024.015.254.254 0 0 0-.109.053.54.54 0 0 1-.194.097.08.08 0 0 0-.027.013c-.044.033-.04.045.01.037a.183.183 0 0 0 .03-.009c.02-.007.04-.01.063-.007"/><path stroke-width="1.5122" fill="none" stroke="#855337" d="m279.03 147.934-.118.063a.059.059 0 0 1-.03.005c-.015 0-.026.004-.033.014a.086.086 0 0 1-.02.023l-.155.073c-.015.007-.023.012-.025.017l-.008.021c-.001.005 0 .007.006.008.018.002.019.004.003.008a1.033 1.033 0 0 1-.263.12.038.038 0 0 0-.023.019l-.076.151a.057.057 0 0 0-.004.03.057.057 0 0 1-.026.056.252.252 0 0 1-.13.042.041.041 0 0 0-.029.011l-.057.059a.03.03 0 0 1-.026.009c-.025-.003-.039.006-.04.027a.07.07 0 0 1-.009.03.197.197 0 0 1-.091.075.036.036 0 0 0-.02.021.28.28 0 0 1-.118.147c-.017.011-.044.03-.08.058a.438.438 0 0 1-.09.051.463.463 0 0 0-.159.14.239.239 0 0 1-.098.075c-.01.004-.016.01-.017.02l-.016.228"/><path stroke-width="1.5122" fill="none" stroke="#bb5554" d="M277.59 147.26a.257.257 0 0 0 .063-.186"/><path stroke-width="1.5122" fill="none" stroke="#df505c" d="M277.768 146.676c.01.047.02.045.033-.005.013-.056.029-.112.046-.167l.021-.047a.133.133 0 0 0 .006-.091"/><path stroke-width="1.5122" fill="none" stroke="#bb5554" d="M277.972 146.067a.435.435 0 0 0 .083-.255M278.112 145.633a.325.325 0 0 0 .044-.226M278.187 145.3a.14.14 0 0 0 .044-.121l.002-.032.007-.065"/><path stroke-width="1.5122" fill="none" stroke="#df505c" d="M278.694 143.066a.409.409 0 0 0 .037-.222.034.034 0 0 1 .01-.026.056.056 0 0 0 .013-.038.46.46 0 0 1 0-.05.708.708 0 0 0 .006-.224"/><path stroke-width="1.5122" fill="none" stroke="#bb5554" d="M278.826 142.02a.948.948 0 0 0 .071-.396 444.528 444.528 0 0 1-.013-.757c.003-.006.006-.005.008.003a6.002 6.002 0 0 0 .026-.411c0-.035.005-.083.012-.144a1.14 1.14 0 0 0 .007-.143c-.001-.1 0-.171.004-.215a6.69 6.69 0 0 0 .021-.834M278.997 138.735a.357.357 0 0 0 .045-.25M279.157 137.669c.017-.042.026-.04.026.005 0 .019 0 .019.002 0l.013-.168M279.369 136.754a.181.181 0 0 0 .055-.173M279.507 136.257c.023.054.034.055.033.001 0-.007.001-.014.005-.02a.28.28 0 0 0 .019-.16M279.578 136.029l.003.03c.003.022.007.022.013 0l.05-.177M279.998 134.246c.051-.177.057-.357.018-.54"/><path stroke-width="1.5122" fill="none" stroke="#df505c" d="m277.855 125.17-.038-.415c-.005-.05-.008-.052-.01-.008a1.818 1.818 0 0 0-.004.145"/><path stroke-width="1.5122" fill="none" stroke="#5daa7c" d="M316.875 145.954c.224.042.45.066.678.072M317.835 146.273c.016.05.03.1.04.15a.937.937 0 0 1 .006.082c.002.031.012.058.03.082.007.008.01.018.01.028 0 .046.004.081.012.106.04.121.054.246.041.374-.005.05.01.185.047.407.002.012.006.021.014.028.03.027.043.02.039-.02a.23.23 0 0 1-.003-.035.775.775 0 0 0-.023-.197"/><path stroke-width="1.5122" fill="none" stroke="#437545" d="M279.03 147.934c.074-.036.144-.078.21-.127a.589.589 0 0 1 .096-.049.199.199 0 0 0 .085-.072M283.112 145.736a.44.44 0 0 0 .185-.055.077.077 0 0 1 .03-.01.157.157 0 0 0 .128-.084"/><path stroke-width="1.5122" fill="none" stroke="#435530" d="m285.7 143.542.148-.108M286.588 142.632a.453.453 0 0 0 .102-.127l.064-.118c.07-.11.137-.221.201-.337"/><path stroke-width="1.5122" fill="none" stroke="#728866" d="M287.427 141.547a.919.919 0 0 1 .238-.074"/><path stroke-width="1.5122" fill="none" stroke="#4e544a" d="m317.534 135.986-.196-.013"/><path stroke-width="1.5122" fill="none" stroke="#898b8b" d="M317.338 135.973c-.074-.049-.132-.073-.175-.072-.679.015-1.357.01-2.036-.017a9.12 9.12 0 0 1-1.193-.116 35.042 35.042 0 0 0-1.464-.23c-.235-.03-.829-.065-1.78-.105l-.901-.044a5.094 5.094 0 0 1-1.47-.28 15.16 15.16 0 0 0-.755-.255 7.35 7.35 0 0 0-1.302-.255 72.91 72.91 0 0 1-1.402-.177 9.379 9.379 0 0 1-.634-.102 9.86 9.86 0 0 1-1.463-.422c-.34-.126-.68-.25-1.022-.369a12.358 12.358 0 0 0-2.394-.579l-.383-.053a16.623 16.623 0 0 1-1.65-.313 75.633 75.633 0 0 1-.54-.118 551.72 551.72 0 0 1-3.883-.918c-.23-.055-.439-.104-.625-.146a126.63 126.63 0 0 0-2.158-.465c-.487-.1-.913-.167-1.277-.199a5.12 5.12 0 0 1-.606-.081"/><path stroke-width="1.5122" fill="none" stroke="#431c1c" d="M282.76 124.233a1.062 1.062 0 0 0-.177-.21l-.141-.13a21.714 21.714 0 0 1-.406-.415c-.024-.026-.048-.039-.072-.038M278.477 120.076a.645.645 0 0 0-.222-.227M277.897 119.509a.484.484 0 0 0-.22-.212"/><path stroke-width="1.5122" fill="none" stroke="#bfc5bc" d="M317.338 135.973a.17.17 0 0 1 .136.142"/><path stroke-width="1.5122" fill="none" stroke="#cee2da" d="M317.736 145.528a.784.784 0 0 0-.027.386c.002.01.009.016.02.017a.12.12 0 0 1 .103.072c.006.014.002.023-.011.029-.035.014-.044.04-.026.079a.45.45 0 0 1 .04.162"/><path stroke-width="1.5122" fill="none" stroke="#89c49f" d="M317.835 146.273a.095.095 0 0 1-.037-.077c0-.01-.003-.02-.01-.029l-.062-.087a.059.059 0 0 0-.023-.02.386.386 0 0 0-.15-.034"/><path stroke-width="1.5122" fill="none" stroke="#cee2da" d="M317.553 146.026c.078-.01.083-.018.016-.026a1.524 1.524 0 0 0-.125-.01 1.104 1.104 0 0 1-.125-.013 2.192 2.192 0 0 0-.444-.023"/><path stroke-width="1.5122" fill="none" stroke="#89c49f" d="M316.875 145.954a41.833 41.833 0 0 0-1.04-.083 45.42 45.42 0 0 1-2.036-.133l-2.43-.24a5.595 5.595 0 0 1-.74-.137 14.64 14.64 0 0 1-.616-.181 8 8 0 0 0-1.09-.253 21.96 21.96 0 0 0-.878-.13 9.768 9.768 0 0 1-1.702-.405 5.27 5.27 0 0 1-1.397-.69c-.087-.062-.16-.11-.217-.147a19.083 19.083 0 0 1-.218-.143 2.952 2.952 0 0 0-1.45-.494 11.99 11.99 0 0 0-1.15-.027 2.167 2.167 0 0 1-.35-.019c-.297-.04-.594-.073-.893-.097-.127-.01-.34-.019-.642-.025a10.23 10.23 0 0 1-1.468-.135 4.573 4.573 0 0 0-.284-.034 3.387 3.387 0 0 1-.285-.038 34.864 34.864 0 0 1-1.333-.26c-.827-.188-1.66-.342-2.5-.46a8.767 8.767 0 0 0-.638-.065c-.54-.037-.87-.064-.992-.08a15.757 15.757 0 0 0-.985-.122c-.339-.01-.678-.02-1.018-.027a3.428 3.428 0 0 1-.375-.029c-.125-.016-.25-.034-.374-.052a6.444 6.444 0 0 0-.562-.063 7.036 7.036 0 0 0-1.547.088"/><path stroke-width="1.5122" fill="none" stroke="#e3c1c3" d="M287.665 141.473a2.847 2.847 0 0 0-.186.01.548.548 0 0 0-.039.012c-.024.006-.039-.009-.043-.046"/><path stroke-width="1.5122" fill="none" stroke="#93ab99" d="M317.958 146.403a.86.86 0 0 0 .04.305"/><path stroke-width="1.5122" fill="none" stroke="#4ab68a" d="M279.93 133.24c-.003-.03-.007-.04-.011-.029a.032.032 0 0 0-.002.016c.011.096.02.192.027.288a3.072 3.072 0 0 0-.014-.275"/><path stroke-width="1.5122" fill="none" stroke="#fafcfc" d="M296.236 135.464c.015 0 .022-.009.02-.024-.007-.05-.037-.078-.09-.084-.008-.001-.016-.006-.024-.015l-.059-.066a.086.086 0 0 1-.018-.025.33.33 0 0 1 .003-.153.044.044 0 0 0-.006-.033c-.04-.062-.087-.088-.14-.079a.08.08 0 0 0-.065.054.164.164 0 0 0-.006.093.04.04 0 0 1-.005.03c-.078.132-.027.207.153.225a.1.1 0 0 1 .067.033c.029.032.085.046.17.044"/><path d="M275.343 117.161c.053.052.1.117.142.195.008.014.019.021.032.02l.136-.016c.098.036.184.09.258.161a.698.698 0 0 0 .128.1c.104.062.2.133.287.214a1.15 1.15 0 0 1-.476-.16.472.472 0 0 0-.18-.055.067.067 0 0 1-.028-.011c-.069-.045-.128-.038-.179.023-.006.007-.005.015.001.025a.05.05 0 0 1 .007.025 3.411 3.411 0 0 1-.4-.336.295.295 0 0 1-.078-.215c-.001-.05.015-.08.047-.093.021-.009.05-.007.09.003a.518.518 0 0 1 .213.12z" fill="#cc858a"/><path d="M275.343 117.161c.113.055.216.121.31.2l-.136.015c-.013.001-.024-.006-.032-.02a.781.781 0 0 0-.142-.195z" fill="#848e7b"/><path d="m276.326 117.835.12.064-.081-.003c-.012 0-.018.005-.018.016l-.005.217c0 .01.004.019.014.026.028.02.076.05.144.088.063.036.135.092.217.169a1.7 1.7 0 0 0 .174.138c.064.046.12.096.167.15.048.056.094.105.139.147l.145.138c.107.109.218.213.334.312.065.078.139.148.22.212l.36.34c.06.09.134.165.22.227.135.138.274.27.418.397.111.097.224.201.339.313.093.092.206.197.337.316.249.227.692.657 1.331 1.29.083.082.237.23.463.445.205.196.405.397.6.603.253.276.518.54.795.793.209.24.355.404.438.49a46.31 46.31 0 0 1 1.568 1.696c.13.149.269.313.414.492.648.8 1.04 1.29 1.172 1.467.555.737 1.114 1.47 1.68 2.201.013.018.038.032.075.043l.12.035-.083.004c-.01 0-.017.006-.019.017a.205.205 0 0 0 .004.082c.005.019.021.04.047.062.04.034.07.062.09.086.317.37.635.74.953 1.108.135.156.277.317.425.482a126.501 126.501 0 0 1 2.067 2.328l.453.54c.334.395.653.801.958 1.22l.065.083a.58.58 0 0 1 .073.117c.014.03.007.055-.02.073a25.8 25.8 0 0 1-.796.509c-.371.227-.728.474-1.07.742-.39.304-.694.528-.914.672-.215.14-.416.26-.604.362-.243.13-.459.255-.648.375a2.969 2.969 0 0 0-.542.454 7.423 7.423 0 0 0-.405.497 9.796 9.796 0 0 1-.863.979c-.073.077-.063.11.03.098a.348.348 0 0 1-.145.057.03.03 0 0 0-.022.016.455.455 0 0 1-.071.102.584.584 0 0 0-.075.095c-.048.082-.1.16-.159.233a1.59 1.59 0 0 0-.208.288 3.797 3.797 0 0 1-.089.14.585.585 0 0 0-.07.154c-.133.157-.258.32-.375.49-.07.1-.191.204-.365.312a.168.168 0 0 0-.148.108.09.09 0 0 1-.063.043.063.063 0 0 0-.029.012 3.423 3.423 0 0 0-.154.131 3.139 3.139 0 0 1-.155.13 1.55 1.55 0 0 0-.134.12 1.541 1.541 0 0 1-.133.121l-.22.174a1.546 1.546 0 0 0-.202.193l-.167.193a1.69 1.69 0 0 0-.146.209c-.2.326-.48.566-.842.719a.373.373 0 0 0-.174.068.054.054 0 0 1-.029.01.193.193 0 0 0-.14.07c-.086.035-.17.075-.252.12a.307.307 0 0 1-.106.034.263.263 0 0 0-.108.035.253.253 0 0 1-.103.044.057.057 0 0 0-.028.012.34.34 0 0 1-.154.065c-.04.006-.04.01 0 .013.005 0 .007.002.005.007l-.002.006c-.003.008-.01.012-.02.014a.85.85 0 0 0-.357.144.089.089 0 0 1-.029.012.055.055 0 0 0-.042.043c-.002.01-.008.015-.018.016a.142.142 0 0 0-.102.054.053.053 0 0 1-.025.018l-.08.027a.052.052 0 0 0-.025.018.076.076 0 0 1-.052.03.088.088 0 0 0-.03.01 1.85 1.85 0 0 1-.325.148.38.38 0 0 0-.112.065.513.513 0 0 1-.134.077.076.076 0 0 0-.026.017.176.176 0 0 1-.089.048.035.035 0 0 0-.023.018c-.016.026-.042.04-.079.045a.333.333 0 0 0-.147.06.126.126 0 0 1-.028.011.03.03 0 0 0-.022.023c-.003.01-.008.018-.017.022l-.274.116c-.01.004-.01.01 0 .016.022.015.009.02-.04.016a.133.133 0 0 0-.031 0 .234.234 0 0 0-.14.067.215.215 0 0 1-.093.054c-.05.015-.08.035-.087.06a.06.06 0 0 1-.014.028.74.74 0 0 1-.182.127 1.404 1.404 0 0 1-.07.018.095.095 0 0 0-.06.049c-.004.006-.002.008.005.008.101-.003.103 0 .005.01-.003 0-.003 0 0 0 .056.005.053.012-.008.02-.05.007-.108.042-.172.106-.059-.013-.106.003-.14.049a.041.041 0 0 1-.024.015.254.254 0 0 0-.109.053.54.54 0 0 1-.194.097.08.08 0 0 0-.027.013c-.044.033-.04.045.01.037a.183.183 0 0 0 .03-.009c.02-.007.04-.01.063-.007l-.118.063a.058.058 0 0 1-.03.005c-.015 0-.026.004-.033.014a.086.086 0 0 1-.02.023l-.155.073c-.015.007-.023.012-.025.017l-.008.021c-.001.005 0 .007.006.008.018.002.019.004.003.008a1.033 1.033 0 0 1-.263.12.038.038 0 0 0-.023.019l-.076.151a.057.057 0 0 0-.004.03.057.057 0 0 1-.026.056.252.252 0 0 1-.13.042.041.041 0 0 0-.029.011l-.057.059a.03.03 0 0 1-.026.009c-.025-.003-.039.006-.04.027a.07.07 0 0 1-.009.03.197.197 0 0 1-.091.075.036.036 0 0 0-.02.021.28.28 0 0 1-.118.147c-.017.011-.044.03-.08.058a.438.438 0 0 1-.09.05.463.463 0 0 0-.159.14.239.239 0 0 1-.098.076c-.01.004-.016.01-.017.02l-.016.228a1.38 1.38 0 0 1-.555.14c-.038 0-.058-.017-.06-.05a.115.115 0 0 1 .02-.064c.065-.112.116-.212.152-.3a89.706 89.706 0 0 0 .62-1.609c.043-.131.087-.262.135-.392a.257.257 0 0 0 .063-.186l.115-.398c.01.047.02.045.033-.005.013-.056.029-.112.046-.167l.021-.047a.133.133 0 0 0 .006-.091l.098-.299a.435.435 0 0 0 .083-.255l.057-.179a.325.325 0 0 0 .044-.226l.03-.106a.14.14 0 0 0 .045-.122l.002-.032.007-.065c.041-.131.07-.242.086-.331.04-.217.075-.392.109-.526.001-.006.002-.006.003 0 .004.031.008.033.012.005.034-.238.081-.473.14-.706.011-.043.02-.087.026-.133a.813.813 0 0 1 .026-.133.975.975 0 0 0 .052-.192.409.409 0 0 0 .037-.222c-.001-.009.002-.018.01-.026a.056.056 0 0 0 .013-.038.46.46 0 0 1 0-.05.708.708 0 0 0 .006-.224c.022-.09.036-.18.044-.27 0-.014.008-.05.02-.105a.283.283 0 0 0 .002-.11.948.948 0 0 0 .071-.397 445.495 445.495 0 0 1-.013-.757c.003-.006.006-.005.008.003a6.002 6.002 0 0 0 .026-.411c0-.035.005-.083.012-.144a1.14 1.14 0 0 0 .007-.143c-.001-.1 0-.171.004-.215a6.69 6.69 0 0 0 .021-.834.398.398 0 0 0 .012-.17.53.53 0 0 1 .023-.218.357.357 0 0 0 .045-.25l.023-.124a.93.93 0 0 0 .013-.125 1.3 1.3 0 0 1 .056-.33.057.057 0 0 0 .002-.024c-.009-.082-.006-.108.007-.078a.257.257 0 0 1 .014-.135c.017-.042.026-.04.026.005 0 .019 0 .019.002 0l.013-.168c.046-.254.103-.505.17-.752a.181.181 0 0 0 .056-.173l.083-.324c.023.054.034.055.033.001 0-.007.001-.014.005-.02a.28.28 0 0 0 .019-.16c0-.018.005-.034.014-.05l.003.032c.003.02.007.02.013 0l.05-.178c.032-.105.069-.211.112-.317a2.49 2.49 0 0 0 .11-.317c.03-.123.05-.247.062-.373a3.194 3.194 0 0 0-.001-.244.93.93 0 0 1 .071-.385c.051-.177.057-.357.018-.54a4.52 4.52 0 0 1-.039-.379 1.045 1.045 0 0 0-.03-.168.618.618 0 0 1-.018-.174.034.034 0 0 0-.011-.026c-.023-.022-.032-.052-.026-.09a1.439 1.439 0 0 0 .005.286 5.23 5.23 0 0 1-.031-.252.476.476 0 0 0-.028-.098.272.272 0 0 1-.015-.104 1.039 1.039 0 0 0-.05-.35 7.74 7.74 0 0 1-.09-.306 3.577 3.577 0 0 0-.094-.305 18.545 18.545 0 0 0-.164-.429l-.036-.059a.102.102 0 0 1-.015-.05.181.181 0 0 0-.007-.05c-.16-.457-.283-.796-.369-1.015a3.552 3.552 0 0 1-.148-.471 14.057 14.057 0 0 0-.102-.418 11.463 11.463 0 0 1-.192-.782 4.277 4.277 0 0 0-.127-.434 3.3 3.3 0 0 1-.061-.242 2.122 2.122 0 0 1-.04-.246 6.055 6.055 0 0 0-.18-.954 2.377 2.377 0 0 1-.069-.34 3.971 3.971 0 0 0-.08-.498 7.903 7.903 0 0 1-.144-.581l-.038-.416c-.005-.05-.008-.052-.01-.008a1.818 1.818 0 0 0-.004.145 3.395 3.395 0 0 1-.044-.293 3.193 3.193 0 0 0-.042-.291c-.047-.226-.092-.452-.137-.678l-.094-.558a5.001 5.001 0 0 0-.16-.668 3.982 3.982 0 0 1-.1-.457 4.701 4.701 0 0 0-.102-.455c-.045-.16-.088-.32-.13-.48a6.876 6.876 0 0 0-.141-.476c-.076-.223-.151-.446-.225-.67a8.15 8.15 0 0 0-.221-.602 7.105 7.105 0 0 0-.541-1.022 74.358 74.358 0 0 1-.132-.218 1.916 1.916 0 0 0-.263-.342.05.05 0 0 0-.007-.025c-.006-.01-.007-.018-.001-.025.05-.06.11-.068.179-.023.009.006.019.01.029.011.074.01.133.028.18.055.154.091.313.145.475.16z" fill="#f21b2d"/><path d="M276.446 117.899c.128.063.414.198.858.402.121.056.238.091.35.105l.115.014c.15.025.298.062.442.11l.258.087c.499.154.997.307 1.496.458.207.062.413.12.619.176.816.218 1.841.488 3.076.809.374.097.717.18 1.028.248.115.025.244.058.386.098.15.043.279.074.387.095.159.03.298.06.418.09a63.29 63.29 0 0 0 1.023.24c.091.022.22.047.383.075.086.014.172.031.257.05l.254.06 1.472.31.33.076c.103.024.207.044.312.061.146.024.25.043.313.055.535.108 1.072.212 1.609.312.105.02.286.058.544.115.121.027.242.051.365.073.146.026.267.05.364.073.491.116.982.232 1.473.35.564.135 1.087.276 1.57.423.454.138.862.366 1.224.684.44.385.924.666 1.455.841.189.063.444.131.765.206.52.121 1.016.267 1.485.437.206.074.504.186.894.337.38.146.77.262 1.17.347.097.02.333.042.708.065.142.008.286.026.432.052.22.04.364.06.432.062.246.01.445.036.598.08.194.058.407.095.64.112.03.002.104.01.219.024.063.007.135.02.217.037.337.073.678.109 1.024.106.193-.002.385.01.575.037l.417.058c.238.023.477.033.717.03.621-.006 1.159-.02 1.613-.043.407-.02.794-.024 1.16-.011.12.004.277.02.472.05.198.03.425.055.679.076.181.016.39.056.623.12.051.014.125.027.22.039.109.013.183.023.222.03.366.065.718.17 1.058.315a30.889 30.889 0 0 1 1.32.637c.238.125.472.227.701.308.337.118.665.239.983.362.048.018.067.053.057.103-.02.11-.05.212-.086.302-.145.362-.295.721-.45 1.079-.288.66-.5 1.164-.636 1.511-.046.118-.106.31-.18.576a2.572 2.572 0 0 0-.082.558 8.373 8.373 0 0 0-.002.562c.007.343.035.685.084 1.025.022.155.057.307.103.456l.104.332c.049.163.105.324.17.482.027.068.072.16.135.273.05.09.095.18.137.273l.03.052c.027.048.02.094-.02.14l-.197-.013c-.074-.049-.132-.073-.175-.072-.679.015-1.357.01-2.036-.017a9.12 9.12 0 0 1-1.193-.116 35.043 35.043 0 0 0-1.464-.23c-.235-.03-.829-.065-1.78-.105l-.901-.044a5.094 5.094 0 0 1-1.47-.28 15.16 15.16 0 0 0-.755-.255 7.35 7.35 0 0 0-1.302-.255 72.927 72.927 0 0 1-1.402-.177 9.379 9.379 0 0 1-.634-.102 9.86 9.86 0 0 1-1.463-.422c-.34-.126-.68-.25-1.022-.369a12.358 12.358 0 0 0-2.394-.579l-.383-.053a16.623 16.623 0 0 1-1.65-.313 75.708 75.708 0 0 1-.54-.118c-1.296-.301-2.59-.607-3.883-.918-.23-.055-.439-.104-.625-.146-.718-.161-1.437-.316-2.158-.465-.487-.1-.913-.167-1.277-.199a5.12 5.12 0 0 1-.606-.081l-.119-.035c-.037-.01-.062-.025-.076-.043a212.33 212.33 0 0 1-1.679-2.201 80.794 80.794 0 0 0-1.172-1.467 16.13 16.13 0 0 0-.414-.492 46.31 46.31 0 0 0-1.568-1.697c-.083-.085-.23-.249-.438-.49a1.062 1.062 0 0 0-.176-.21l-.141-.13a21.712 21.712 0 0 1-.406-.414c-.024-.026-.048-.039-.072-.038a16.224 16.224 0 0 0-.6-.603c-.226-.215-.38-.363-.463-.445a52.624 52.624 0 0 0-1.331-1.29c-.131-.12-.244-.224-.337-.316a8.563 8.563 0 0 0-.339-.313 7.54 7.54 0 0 1-.417-.397.645.645 0 0 0-.222-.227l-.358-.34a.484.484 0 0 0-.22-.212 5.12 5.12 0 0 1-.335-.312l-.145-.138a2.017 2.017 0 0 1-.139-.146.929.929 0 0 0-.167-.15 1.7 1.7 0 0 1-.174-.14 1.196 1.196 0 0 0-.217-.168 1.568 1.568 0 0 1-.144-.088c-.01-.007-.014-.016-.014-.026l.005-.217c0-.011.006-.017.018-.016l.08.003z" fill="#181919"/><path d="M277.676 119.297c.097.047.17.118.22.212a1.366 1.366 0 0 1-.22-.212zM278.255 119.849a.645.645 0 0 1 .222.227.873.873 0 0 1-.222-.227zM281.964 123.44c.024 0 .048.012.072.038.058.063.194.201.406.415l.14.13c.068.062.127.132.177.21a12.392 12.392 0 0 1-.795-.793z" fill="#6e1f1e"/><path d="M277.855 125.17a.5.5 0 0 1-.052-.278c0-.048 0-.097.003-.145.003-.044.006-.041.01.008.014.138.026.277.039.416z" fill="#cc858a"/><path d="M288.225 130.657c.142.031.344.058.606.081.364.032.79.099 1.277.2.72.148 1.44.303 2.158.464.186.042.394.09.625.146 1.293.31 2.587.617 3.882.918a70.471 70.471 0 0 1 1.08.239c.236.053.607.117 1.11.192l.384.053c.817.113 1.615.306 2.394.58.342.119.682.242 1.022.368a9.86 9.86 0 0 0 1.463.422c.163.033.375.067.634.102.707.093 1.174.153 1.402.177.463.05.897.135 1.302.255.175.052.427.137.755.255.444.16.933.253 1.47.28l.9.044c.952.04 1.546.075 1.781.105.335.042.823.119 1.464.23.343.06.741.098 1.193.116.679.026 1.357.032 2.036.017.043-.001.101.023.175.072a.17.17 0 0 1 .136.142l.015.326c.004.098.018.195.042.29.094.367.146.598.158.693.025.205.058.408.1.61.106.508.197 1.061.272 1.657.022.176.023.34 0 .493-.033.235-.06.471-.08.708a4.689 4.689 0 0 1-.074.575 4.49 4.49 0 0 1-.181.61 1 1 0 0 0-.039.393c.01.169.016.337.019.506.01.653.034 1.305.069 1.958a4.9 4.9 0 0 1-.04.594.784.784 0 0 0-.026.386c.002.01.009.016.02.017a.12.12 0 0 1 .103.072c.006.014.002.023-.011.029-.035.014-.044.04-.026.079a.45.45 0 0 1 .04.162.095.095 0 0 1-.037-.077c0-.01-.003-.02-.01-.029l-.062-.087a.059.059 0 0 0-.023-.02.386.386 0 0 0-.15-.034c.078-.01.083-.018.016-.026a1.522 1.522 0 0 0-.125-.01 1.104 1.104 0 0 1-.125-.013 2.193 2.193 0 0 0-.444-.023 41.832 41.832 0 0 0-1.04-.083 45.41 45.41 0 0 1-2.036-.133l-2.43-.24a5.595 5.595 0 0 1-.74-.137 14.643 14.643 0 0 1-.616-.181 8.001 8.001 0 0 0-1.09-.253 21.96 21.96 0 0 0-.878-.13 9.768 9.768 0 0 1-1.702-.405 5.27 5.27 0 0 1-1.397-.69c-.087-.062-.16-.11-.217-.147a19 19 0 0 1-.218-.143 2.952 2.952 0 0 0-1.45-.494 11.99 11.99 0 0 0-1.15-.027 2.166 2.166 0 0 1-.35-.019 16.61 16.61 0 0 0-.893-.097c-.127-.01-.34-.019-.642-.025a10.23 10.23 0 0 1-1.468-.135 4.576 4.576 0 0 0-.284-.034 3.387 3.387 0 0 1-.285-.038 34.866 34.866 0 0 1-1.333-.26c-.827-.188-1.66-.342-2.5-.46a8.768 8.768 0 0 0-.638-.065c-.54-.037-.87-.064-.992-.08a15.76 15.76 0 0 0-.985-.122c-.339-.01-.678-.02-1.018-.027a3.427 3.427 0 0 1-.375-.029c-.125-.016-.25-.034-.374-.052a6.445 6.445 0 0 0-.562-.063 7.035 7.035 0 0 0-1.547.088 2.844 2.844 0 0 0-.186.01.55.55 0 0 0-.039.012c-.024.006-.039-.009-.043-.046.31-.307.597-.634.863-.979.197-.255.332-.421.405-.497.178-.186.359-.337.542-.454.19-.12.405-.245.648-.375.188-.101.39-.222.604-.362.22-.144.524-.368.913-.672.343-.268.7-.515 1.07-.742a25.8 25.8 0 0 0 .797-.51c.027-.017.034-.042.02-.072a.58.58 0 0 0-.073-.117l-.065-.084a21.799 21.799 0 0 0-.958-1.22c-.152-.179-.303-.359-.453-.539-.26-.31-.948-1.085-2.067-2.328-.148-.165-.29-.326-.425-.482l-.953-1.108a.857.857 0 0 0-.09-.086.136.136 0 0 1-.047-.062.205.205 0 0 1-.004-.082c.002-.01.008-.016.02-.017l.081-.004zm8.01 4.807c.016 0 .023-.009.021-.024-.007-.05-.037-.078-.09-.084-.008-.001-.016-.006-.024-.015l-.059-.066a.086.086 0 0 1-.018-.025.33.33 0 0 1 .003-.153.044.044 0 0 0-.006-.033c-.04-.062-.087-.088-.14-.079a.08.08 0 0 0-.065.054.164.164 0 0 0-.006.093.04.04 0 0 1-.005.03c-.078.132-.027.207.153.225a.1.1 0 0 1 .067.033c.029.032.085.046.17.044z" fill="#fafcfc"/><path d="M279.93 133.24a3.072 3.072 0 0 1 .014.275 5.202 5.202 0 0 0-.027-.288c0-.006 0-.012.002-.016.004-.01.008 0 .01.03zM280.016 133.706c.039.183.033.363-.018.54l-.014-.543c0-.013.001-.013.005 0 .014.049.023.05.027.003z" fill="#848e7b"/><path d="M296.236 135.464c-.085.002-.141-.012-.17-.044a.1.1 0 0 0-.067-.033c-.18-.018-.23-.093-.153-.226a.04.04 0 0 0 .005-.03.164.164 0 0 1 .006-.092.08.08 0 0 1 .065-.054c.053-.009.1.017.14.079.006.01.008.02.006.033a.33.33 0 0 0-.003.153.086.086 0 0 0 .018.025l.06.066c.007.009.015.014.023.015.053.006.083.034.09.084.002.015-.005.023-.02.024z" fill="#fafcfc"/><path d="m279.644 135.882-.05.178c-.006.02-.01.02-.013 0l-.003-.031a.348.348 0 0 1 .066-.147zM279.564 136.078a.28.28 0 0 1-.02.16.047.047 0 0 0-.004.02c.001.054-.01.053-.033-.001l.057-.18zM279.424 136.581a.181.181 0 0 1-.055.173.488.488 0 0 1 .055-.173zM279.198 137.506l-.013.168c-.002.019-.002.019-.002 0 0-.046-.009-.047-.026-.005a.213.213 0 0 1 .015-.14.071.071 0 0 0 .005-.017c.015-.081.022-.083.021-.006zM317.338 135.973l.196.013a.193.193 0 0 0-.06.13.17.17 0 0 0-.136-.143zM279.042 138.485c.016.09 0 .173-.045.25 0-.087.015-.17.045-.25zM278.962 139.123c.01.279.003.557-.021.834a2.368 2.368 0 0 0-.004.215c0 .048-.002.095-.007.143a1.616 1.616 0 0 0-.012.143 6.002 6.002 0 0 1-.026.412c-.002-.008-.005-.01-.008-.003a29.005 29.005 0 0 1-.072.882c-.001-.018.003-.033.013-.046.007-.01.01-.019.01-.028-.011-.567.014-1.132.075-1.695.014-.135.024-.278.029-.428.004-.143.012-.286.023-.43z" fill="#848e7b"/><path d="M316.875 145.954c.224.042.45.066.678.072a.386.386 0 0 1 .15.034c.008.003.016.01.023.02l.062.087c.007.01.01.019.01.029 0 .032.013.057.037.077.016.05.03.1.04.15a.936.936 0 0 1 .006.082c.002.031.012.058.03.082.007.008.01.018.01.028 0 .046.004.081.012.106.04.121.054.246.041.374-.005.05.01.185.047.407.002.012.006.021.014.028.03.027.043.02.039-.02a.23.23 0 0 1-.003-.035.775.775 0 0 0-.023-.197c.056.054.073.113.052.179a.063.063 0 0 0 .013.064.463.463 0 0 1 .12.244c.002.018.008.04.018.066.01.023.013.046.01.07a.772.772 0 0 0 .014.234l.028.13c.06.368.104.738.133 1.11.016.21.023.424.021.64-.002.293-.014.586-.034.878a2.568 2.568 0 0 1-.048.346 9.425 9.425 0 0 1-.813 2.318c-.15.3-.315.651-.492 1.053a.492.492 0 0 1-.095.137.04.04 0 0 1-.028.013.284.284 0 0 1-.154-.039 2.851 2.851 0 0 1-.326-.198 60.374 60.374 0 0 1-1.28-.976 7.048 7.048 0 0 0-1.711-1 2.095 2.095 0 0 0-.26-.086 64.09 64.09 0 0 1-.25-.065 3.688 3.688 0 0 0-.548-.108 4.14 4.14 0 0 0-.62-.01l-.62.024a6.694 6.694 0 0 0-.795.08l-.457.09a6.07 6.07 0 0 1-1.163.12c-.555.001-1.01.015-1.364.042a49.144 49.144 0 0 1-3.12.156 6.064 6.064 0 0 1-.592-.031 8.256 8.256 0 0 1-.586-.078l-.693-.113a22.013 22.013 0 0 0-.636-.094c-.32-.042-.642-.086-.963-.13a7.458 7.458 0 0 0-.638-.06c-.45-.024-.837-.05-1.162-.077a5.803 5.803 0 0 0-.547-.026c-.346.005-.69.01-1.036.017a9.765 9.765 0 0 1-1.155-.048c-.38-.038-.594-.058-.64-.061a10.28 10.28 0 0 0-.958-.012c-.333.01-.666 0-.997-.035a62.693 62.693 0 0 1-.605-.066 7.131 7.131 0 0 1-1.052-.2 27.05 27.05 0 0 1-2.837-.923 41.55 41.55 0 0 0-1.494-.56 7.805 7.805 0 0 0-1.576-.348c-.448-.056-.85-.089-1.203-.097a10.95 10.95 0 0 0-.642.015c-.53.023-1.06.035-1.59.036-.314.001-.536-.011-.668-.036a5.999 5.999 0 0 0-.616-.083c-.24-.02-.478-.04-.718-.058a7.876 7.876 0 0 1-.491-.063 4.986 4.986 0 0 0-.507-.049 28.227 28.227 0 0 1-.981-.062 9.819 9.819 0 0 0-.536-.028c-.179-.005-.357-.011-.536-.018a1.432 1.432 0 0 0-.346.033l.016-.227c.001-.01.007-.017.017-.021a.239.239 0 0 0 .098-.076.463.463 0 0 1 .16-.14.438.438 0 0 0 .089-.05c.036-.027.063-.047.08-.058a.28.28 0 0 0 .118-.147.036.036 0 0 1 .02-.02.197.197 0 0 0 .091-.076.07.07 0 0 0 .008-.03c.002-.021.016-.03.04-.027a.03.03 0 0 0 .027-.01l.057-.058a.041.041 0 0 1 .028-.011.252.252 0 0 0 .131-.042.057.057 0 0 0 .026-.056.057.057 0 0 1 .004-.03l.076-.151a.038.038 0 0 1 .024-.02 1.033 1.033 0 0 0 .262-.119c.016-.004.015-.006-.003-.008-.006 0-.007-.003-.006-.008l.008-.021c.002-.005.01-.01.025-.017l.155-.073a.086.086 0 0 0 .02-.023c.007-.01.018-.015.032-.014a.058.058 0 0 0 .03-.005l.119-.063c.074-.036.144-.078.21-.127a.59.59 0 0 1 .096-.049.199.199 0 0 0 .085-.072c.064-.064.121-.099.172-.106.061-.008.064-.015.008-.02-.003 0-.003 0 0 0 .098-.01.096-.013-.005-.01-.007 0-.009-.002-.006-.008a.095.095 0 0 1 .061-.05l.07-.017a.74.74 0 0 0 .182-.127.06.06 0 0 0 .014-.028c.007-.025.036-.045.087-.06a.215.215 0 0 0 .093-.054.234.234 0 0 1 .14-.067.133.133 0 0 1 .03 0c.05.005.063 0 .04-.016-.009-.007-.009-.012 0-.016l.275-.116c.009-.004.014-.011.017-.022a.03.03 0 0 1 .022-.023.126.126 0 0 0 .028-.012.333.333 0 0 1 .147-.06c.037-.003.063-.018.079-.044a.035.035 0 0 1 .023-.018.176.176 0 0 0 .09-.048.076.076 0 0 1 .025-.017.513.513 0 0 0 .134-.077.38.38 0 0 1 .112-.065 1.85 1.85 0 0 0 .326-.148.088.088 0 0 1 .03-.01.076.076 0 0 0 .051-.03.052.052 0 0 1 .024-.018l.081-.027a.053.053 0 0 0 .025-.018.142.142 0 0 1 .102-.054c.01 0 .016-.006.018-.016a.055.055 0 0 1 .042-.043.089.089 0 0 0 .029-.012.85.85 0 0 1 .357-.144c.01-.002.017-.006.02-.014l.002-.006c.002-.005 0-.007-.005-.007-.04-.003-.04-.007 0-.013a.34.34 0 0 0 .154-.065.057.057 0 0 1 .028-.012.253.253 0 0 0 .103-.044.263.263 0 0 1 .108-.035.307.307 0 0 0 .106-.034c.082-.045.166-.085.252-.12a.44.44 0 0 0 .185-.054.077.077 0 0 1 .03-.01.157.157 0 0 0 .128-.084c.361-.153.642-.393.842-.72a1.69 1.69 0 0 1 .146-.208c.055-.064.11-.129.167-.193.06-.07.128-.134.202-.193l.22-.174c.037-.029.081-.069.133-.12a1.55 1.55 0 0 1 .134-.121c.067-.053.12-.097.155-.13.05-.045.102-.089.154-.131a.063.063 0 0 1 .029-.012.09.09 0 0 0 .063-.043l.148-.108c.174-.108.295-.213.365-.313.117-.169.242-.332.375-.49a.453.453 0 0 0 .102-.126l.064-.118c.07-.11.137-.221.201-.337.058-.073.111-.151.16-.233a.584.584 0 0 1 .074-.095.455.455 0 0 0 .07-.102.03.03 0 0 1 .023-.016.348.348 0 0 0 .145-.057.919.919 0 0 1 .238-.074 7.035 7.035 0 0 1 1.547-.088c.137.007.325.028.562.063.124.018.249.036.374.052.12.016.245.026.375.029.34.007.679.017 1.018.027.101.004.43.044.985.121.122.017.452.044.992.08.232.017.445.038.638.065.84.12 1.673.273 2.5.46.274.062.719.15 1.333.26.087.016.182.03.285.039.125.012.22.023.284.034.487.08.976.126 1.468.135.301.006.515.015.642.025.299.024.596.057.894.097.114.016.23.022.348.019.384-.01.768 0 1.151.027.528.038 1.011.202 1.45.494a19 19 0 0 0 .218.143c.058.037.13.085.217.146.43.3.896.53 1.397.69.636.206 1.204.341 1.702.407a21.96 21.96 0 0 1 .878.13c.37.058.733.142 1.09.252.324.1.529.16.616.18.292.072.539.117.74.137l2.43.24c.467.046 1.146.09 2.037.134.126.007.472.034 1.039.083z" fill="#188b41"/><path d="M287.397 141.449c.004.037.019.052.043.046a.55.55 0 0 1 .039-.011c.062-.006.124-.01.186-.011a.919.919 0 0 0-.238.074c-.093.011-.103-.021-.03-.098z" fill="#cc858a"/><path d="M286.955 142.05a6.877 6.877 0 0 1-.2.337c-.002.001-.023.04-.065.118a.453.453 0 0 1-.102.127.585.585 0 0 1 .07-.153l.09-.14c.057-.104.127-.2.207-.289z" fill="#6e1f1e"/><path d="M278.76 142.506c.01.075.008.15-.005.224a.46.46 0 0 0-.001.05.056.056 0 0 1-.014.038c-.007.008-.01.017-.01.026a.409.409 0 0 1-.036.222c.014-.195.03-.388.05-.578.003-.04.009-.034.016.018z" fill="#cc858a"/><path d="m285.848 143.434-.148.108a.168.168 0 0 1 .148-.108z" fill="#6e1f1e"/><path d="m278.24 145.082-.007.065a.25.25 0 0 0-.002.032.14.14 0 0 1-.044.122.348.348 0 0 1 .053-.22zM278.156 145.407a.325.325 0 0 1-.044.226.164.164 0 0 1 .013-.118.294.294 0 0 0 .031-.108zM278.055 145.812a.435.435 0 0 1-.083.255 1.33 1.33 0 0 1 .068-.276.063.063 0 0 0 .004-.021c.001-.065.005-.051.01.042z" fill="#848e7b"/><path d="M283.455 145.587a.157.157 0 0 1-.128.085.077.077 0 0 0-.03.009.44.44 0 0 1-.185.055.193.193 0 0 1 .14-.071c.011 0 .02-.004.03-.01a.373.373 0 0 1 .173-.068z" fill="#6e5e48"/><path d="M277.874 146.366a.133.133 0 0 1-.006.091.964.964 0 0 0-.02.047c-.018.055-.034.11-.047.167-.013.05-.023.052-.033.005l.106-.31z" fill="#cc858a"/><path d="M277.653 147.074a.257.257 0 0 1-.063.186.444.444 0 0 1 .063-.186z" fill="#848e7b"/><path d="M317.736 145.528a.441.441 0 0 1-.004.184.337.337 0 0 0-.01.089l.002.075c0 .01.006.017.016.02a.196.196 0 0 1 .127.135 5.2 5.2 0 0 1 .091.372.86.86 0 0 0 .04.305.313.313 0 0 0 .004.123c.025.128.04.277.046.447a.775.775 0 0 1 .023.197c0 .01 0 .021.003.035.004.04-.008.047-.039.02a.044.044 0 0 1-.014-.028 2.41 2.41 0 0 1-.047-.407.907.907 0 0 0-.041-.374.333.333 0 0 1-.011-.106c0-.01-.004-.02-.01-.028a.136.136 0 0 1-.03-.082.936.936 0 0 0-.006-.082c-.012-.05-.025-.1-.04-.15a.45.45 0 0 0-.041-.162c-.018-.039-.009-.065.026-.08.013-.005.017-.014.01-.028a.12.12 0 0 0-.102-.072c-.011 0-.018-.007-.02-.017a.784.784 0 0 1 .027-.386zM316.875 145.954c.15-.007.298 0 .444.023.04.007.08.01.125.012.041.002.083.006.125.01.067.01.062.018-.016.027a4.328 4.328 0 0 1-.678-.072z" fill="#a2c8b7"/><path d="M279.421 147.686a.199.199 0 0 1-.085.072.59.59 0 0 0-.095.049 1.357 1.357 0 0 1-.211.127.126.126 0 0 0-.063.007.183.183 0 0 1-.03.01c-.05.007-.054-.005-.01-.038a.08.08 0 0 1 .027-.013.54.54 0 0 0 .194-.097.254.254 0 0 1 .109-.053.041.041 0 0 0 .025-.015c.033-.046.08-.062.14-.05z" fill="#6e5e48"/><path d="M317.958 146.403c.05.096.064.198.04.305a.86.86 0 0 1-.04-.305z" fill="#848e7b"/></g></g></g></g></g></g></svg>
