<svg xmlns="http://www.w3.org/2000/svg" xmlns:xlink="http://www.w3.org/1999/xlink" width="200" height="100" viewBox="0 0 150 75"><clipPath id="a"><path transform="scale(.24)" d="M0 0h625v343.75H0z" fill-rule="evenodd"/></clipPath><g clip-path="url(#a)"><path d="M0 0h150v82.5H0z" fill="transparent"/></g><clipPath id="b"><path transform="scale(.24)" d="M0 0h625v312.5H0z" fill-rule="evenodd"/></clipPath><g clip-path="url(#b)"><path d="M0 0h150v75H0z" fill="transparent"/></g><clipPath id="c"><path transform="scale(.24)" d="M0 0h625v312.5H0z" fill-rule="evenodd"/></clipPath><g clip-path="url(#c)"><path d="M0 0h150v75H0z" fill="transparent"/></g><clipPath id="d"><path transform="scale(.24)" d="M0 0h625v312.5H0z" fill-rule="evenodd"/></clipPath><g clip-path="url(#d)"><symbol id="e"><path d="M.229 0a.224.224 0 0 0-.162.068.23.23 0 0 0-.045.259.22.22 0 0 0 .15.124V.228C.172.209.178.196.19.186a.06.06 0 0 1 .04-.013c.015 0 .029.004.04.013.01.01.016.023.016.042v.37c0 .063.017.111.05.145.033.033.081.05.144.05h.033V.222a.21.21 0 0 0-.076-.16.257.257 0 0 0-.082-.046A.285.285 0 0 0 .257 0H.229z"/></symbol><symbol id="f"><path d="M0 0v.023c0 .012.004.023.013.031.01.009.02.013.03.013H.2V.044a.041.041 0 0 0-.013-.03A.041.041 0 0 0 .156 0H0z"/></symbol><symbol id="g"><path d="M0 0v.228h.124A.224.224 0 0 0 .192.39a.233.233 0 0 0 .161.068.232.232 0 0 0 .222-.172H.352A.057.057 0 0 1 .297.228H.58V0H0z"/></symbol><symbol id="h"><path d="M.04 0C.027 0 .017.004.01.012a.046.046 0 0 0-.01.03v.02h.062c0 .011.003.021.01.03.005.01.012.018.022.024.01.005.02.008.033.008.01 0 .02-.003.03-.008A.065.065 0 0 0 .18.093a.058.058 0 0 0 0-.062.072.072 0 0 0-.023-.023A.057.057 0 0 0 .127 0H.04m.087.045c.003 0 .006.001.01.004a.016.016 0 0 1 .006.013.016.016 0 0 1-.005.012.015.015 0 0 1-.011.005.019.019 0 0 1-.013-.005.015.015 0 0 1-.006-.012C.108.057.11.052.114.05A.02.02 0 0 1 .127.045z"/></symbol><symbol id="i"><path d="M0 .228v.228h.648a.025.025 0 0 1 .026.026v.01c0 .014-.008.021-.022.021H.125A.154.154 0 0 0 .273.63h.463C.772.63.799.622.818.603.838.583.847.556.847.52V.34C.847.304.837.276.818.257.8.237.772.228.736.228H0M.486 0a.055.055 0 0 0-.04.017.054.054 0 0 0-.017.04.056.056 0 0 0 .057.056.055.055 0 0 0 .056-.057.053.053 0 0 0-.016-.04A.055.055 0 0 0 .486 0z"/></symbol><symbol id="j"><path d="M0 0z"/></symbol><symbol id="k"><path d="M.152 0a.142.142 0 0 0-.059.012.166.166 0 0 0-.048.033.166.166 0 0 0-.033.048.142.142 0 0 0-.012.06V.57h.077A.152.152 0 0 0 .184.527.15.15 0 0 0 .217.478a.146.146 0 0 0 .012-.06V0H.152z"/></symbol><symbol id="l"><path d="M.353 0a.233.233 0 0 0-.229.228H0v.228h.582V.228a.224.224 0 0 0-.14-.21A.219.219 0 0 0 .352 0m0 .172c.016 0 .029.006.04.017.01.01.016.024.016.04a.056.056 0 0 1-.016.04.053.053 0 0 1-.04.016.055.055 0 0 1-.04-.017.055.055 0 0 1-.016-.04A.054.054 0 0 1 .326.18.058.058 0 0 1 .353.172z"/></symbol><symbol id="m"><path d="M0 .228v.228h.38V.381A.158.158 0 0 0 .335.274.157.157 0 0 0 .226.227H0M.235 0a.052.052 0 0 0-.04.017.072.072 0 0 0-.012.018.057.057 0 0 0 0 .044.076.076 0 0 0 .013.018c.01.01.023.016.039.016.017 0 .03-.005.04-.016a.057.057 0 0 0 .017-.04.057.057 0 0 0-.016-.04A.053.053 0 0 0 .235 0z"/></symbol><symbol id="n"><path d="M.171.7a.057.057 0 0 0-.04.016.055.055 0 0 0-.017.04c0 .016.006.029.017.04a.055.055 0 0 0 .04.017.055.055 0 0 0 .04-.017.055.055 0 0 0 .017-.04c0-.01-.003-.02-.009-.029A.055.055 0 0 0 .2.707.054.054 0 0 0 .17.7m.116 0a.054.054 0 0 0-.04.017.054.054 0 0 0-.016.04c0 .014.005.027.016.039a.054.054 0 0 0 .04.017.055.055 0 0 0 .04-.017.055.055 0 0 0 .016-.04.055.055 0 0 0-.03-.049A.054.054 0 0 0 .288.7M.229 0v.226a.223.223 0 0 0-.161.066.224.224 0 0 0-.05.25.23.23 0 0 0 .3.123A.224.224 0 0 0 .44.542.219.219 0 0 0 .458.454V.152a.152.152 0 0 0-.094-.14A.145.145 0 0 0 .305 0H.229m0 .398c.015 0 .029.005.04.016a.055.055 0 0 1 .017.04c0 .017-.006.03-.018.041a.057.057 0 0 1-.04.016.053.053 0 0 1-.04-.018.057.057 0 0 1 0-.079.055.055 0 0 1 .04-.016z"/></symbol><symbol id="o"><path d="M0 .228v.228h.469V.228H0M.235 0a.055.055 0 0 0-.049.03.057.057 0 0 0 .009.067.055.055 0 0 0 .04.016c.017 0 .03-.005.041-.016a.058.058 0 0 0 .016-.04.053.053 0 0 0-.017-.04A.053.053 0 0 0 .235 0m.116 0a.055.055 0 0 0-.04.017.055.055 0 0 0-.017.04c0 .015.006.029.017.04a.055.055 0 0 0 .04.016c.017 0 .03-.005.04-.017a.057.057 0 0 0 .016-.04.056.056 0 0 0-.016-.04A.053.053 0 0 0 .351 0z"/></symbol><symbol id="p"><path d="M.41.458a.056.056 0 0 0-.04.016.056.056 0 0 0-.017.04A.056.056 0 0 0 .41.57.055.055 0 0 0 .466.514.056.056 0 0 0 .41.458M0 0v.228h.124V.25a.151.151 0 0 0 .093.14.146.146 0 0 0 .06.012h.462c.037 0 .064-.01.083-.028C.842.355.851.327.851.29V0H0m.297.228h.355a.025.025 0 0 1 .026.025v.01C.678.278.67.285.656.285H.322A.026.026 0 0 1 .304.278.025.025 0 0 1 .297.259V.228z"/></symbol><symbol id="q"><path d="M0 .228v.228h.491V.381A.147.147 0 0 0 .446.272.156.156 0 0 0 .339.228H0M.224 0a.055.055 0 0 0-.049.03.057.057 0 0 0 .009.067.055.055 0 0 0 .04.016C.24.113.254.108.265.097a.058.058 0 0 0 .016-.04.053.053 0 0 0-.017-.04A.053.053 0 0 0 .224 0M.34 0A.055.055 0 0 0 .3.017a.055.055 0 0 0-.017.04c0 .015.006.029.017.04a.055.055 0 0 0 .04.016C.357.113.37.108.38.096a.057.057 0 0 0 .016-.04.056.056 0 0 0-.016-.04A.053.053 0 0 0 .34 0z"/></symbol><symbol id="r"><path d="M0 0v.268a.141.141 0 0 0 .039.095.134.134 0 0 0 .095.039h.218A.047.047 0 0 0 .387.388.047.047 0 0 0 .402.352V.327a.048.048 0 0 0-.05-.05H.199A.046.046 0 0 1 .164.262.05.05 0 0 1 .149.228h.253V.134a.13.13 0 0 0-.04-.095A.13.13 0 0 0 .268 0L0 .001z"/></symbol><symbol id="s"><path d="M.235.361A.054.054 0 0 0 .186.39.058.058 0 0 0 .18.418c0 .015.005.028.016.04a.054.054 0 0 0 .04.016C.252.474.265.47.276.457a.056.056 0 0 0 .016-.04.055.055 0 0 0-.017-.04.054.054 0 0 0-.04-.016M0 0v.228h.38V.152A.153.153 0 0 0 .334.045.148.148 0 0 0 .227 0H0z"/></symbol><symbol id="t"><path d="M.152.138a.142.142 0 0 0-.059.013.166.166 0 0 0-.048.032.166.166 0 0 0-.033.049A.142.142 0 0 0 0 .29v.418h.077A.152.152 0 0 0 .184.665.15.15 0 0 0 .217.617a.146.146 0 0 0 .012-.06V.138H.152M.002 0c0 .016.003.031.01.046.009.014.02.026.034.036a.17.17 0 0 0 .107.034H.23V.115A.083.083 0 0 0 .226.09.03.03 0 0 0 .212.073.04.04 0 0 0 .19.066H.111A.01.01 0 0 1 .105.064.01.01 0 0 1 .103.058C.103.053.106.05.11.05h.066C.185.05.19.048.191.045.192.041.19.037.184.033A.189.189 0 0 0 .077 0H.001z"/></symbol><symbol id="u"><path d="M0 0v.228h.307l-.164.1a.038.038 0 0 0-.015.016.053.053 0 0 0-.005.023V.42a.151.151 0 0 0 .093.14.146.146 0 0 0 .06.012h.362V.494A.147.147 0 0 0 .593.386.153.153 0 0 0 .486.343h-.1l.162-.1A.038.038 0 0 0 .563.227.048.048 0 0 0 .57.204V.152A.147.147 0 0 0 .523.044.156.156 0 0 0 .417 0H0z"/></symbol><symbol id="v"><path d="M.075 0c-.01 0-.02.002-.029.006a.082.082 0 0 0-.04.04A.074.074 0 0 0 0 .075v.13h.038A.072.072 0 0 0 .107.159.07.07 0 0 0 .113.13V0H.075m.128 0c-.01 0-.02.002-.03.006a.082.082 0 0 0-.04.04.074.074 0 0 0-.005.029v.13h.038A.072.072 0 0 0 .234.159.07.07 0 0 0 .241.13V0H.203z"/></symbol><use xlink:href="#e" transform="matrix(10.5832 0 0 -10.5832 30.755 31.915)" fill="#3c4f75"/><use xlink:href="#f" transform="matrix(10.5832 0 0 -10.5832 38.21 30.676)" fill="#3c4f75"/><use xlink:href="#g" transform="matrix(10.5832 0 0 -10.5832 35.588 29.565)" fill="#3c4f75"/><use xlink:href="#h" transform="matrix(10.5832 0 0 -10.5832 45.654 24.59)" fill="#3c4f75"/><use xlink:href="#i" transform="matrix(10.5832 0 0 -10.5832 41.15 31.981)" fill="#3c4f75"/><use xlink:href="#j" transform="matrix(10.5832 0 0 -10.5832 50.404 29.565)" fill="#3c4f75"/><use xlink:href="#k" transform="matrix(10.5832 0 0 -10.5832 51.874 29.565)" fill="#3c4f75"/><use xlink:href="#l" transform="matrix(10.5832 0 0 -10.5832 53.709 31.981)" fill="#3c4f75"/><use xlink:href="#m" transform="matrix(10.5832 0 0 -10.5832 59.277 31.981)" fill="#3c4f75"/><use xlink:href="#j" transform="matrix(10.5832 0 0 -10.5832 63.586 29.565)" fill="#3c4f75"/><use xlink:href="#n" transform="matrix(10.5832 0 0 -10.5832 65.056 31.952)" fill="#3c4f75"/><use xlink:href="#o" transform="matrix(10.5832 0 0 -10.5832 69.313 31.981)" fill="#3c4f75"/><use xlink:href="#p" transform="matrix(10.5832 0 0 -10.5832 73.687 29.565)" fill="#3c4f75"/><use xlink:href="#q" transform="matrix(10.5832 0 0 -10.5832 82.101 31.981)" fill="#3c4f75"/><use xlink:href="#j" transform="matrix(10.5832 0 0 -10.5832 87.593 29.565)" fill="#3c4f75"/><use xlink:href="#r" transform="matrix(10.5832 0 0 -10.5832 89.062 29.565)" fill="#3c4f75"/><use xlink:href="#k" transform="matrix(10.5832 0 0 -10.5832 93.901 29.565)" fill="#3c4f75"/><use xlink:href="#s" transform="matrix(10.5832 0 0 -10.5832 95.736 29.565)" fill="#3c4f75"/><use xlink:href="#t" transform="matrix(10.5832 0 0 -10.5832 100.34 31.029)" fill="#3c4f75"/><use xlink:href="#j" transform="matrix(10.5832 0 0 -10.5832 103.056 29.565)" fill="#3c4f75"/><use xlink:href="#e" transform="matrix(10.5832 0 0 -10.5832 104.526 31.915)" fill="#3c4f75"/><use xlink:href="#u" transform="matrix(10.5832 0 0 -10.5832 109.359 29.565)" fill="#3c4f75"/><use xlink:href="#v" transform="matrix(10.5832 0 0 -10.5832 116.702 25.696)" fill="#3c4f75"/><symbol id="w"><path d="M.229 0a.224.224 0 0 0-.162.067A.23.23 0 0 0 0 .23a.235.235 0 0 0 .05.143.237.237 0 0 0-.05.142.23.23 0 0 0 .327.207.226.226 0 0 0 .124-.15H.227A.057.057 0 0 1 .172.513h.285V.285H.226A.055.055 0 0 1 .172.229C.172.213.177.2.188.189a.058.058 0 0 1 .04-.017H.45A.226.226 0 0 0 .229 0z"/></symbol><symbol id="x"><path d="M0 0v.228h.124v.019a.151.151 0 0 0 .046.11.153.153 0 0 0 .11.045h.078V.156a.151.151 0 0 0-.012-.06.152.152 0 0 0-.083-.084A.151.151 0 0 0 .203 0H0m.371 0v.247a.151.151 0 0 0 .046.11.153.153 0 0 0 .11.045h.078V.156a.151.151 0 0 0-.012-.06A.152.152 0 0 0 .51.012.151.151 0 0 0 .45 0H.37m.247 0v.247c0 .021.004.041.011.06a.157.157 0 0 0 .144.095h.079V0H.618z"/></symbol><symbol id="y"><path d="M.235.361a.052.052 0 0 0-.04.017.076.076 0 0 0-.012.018.057.057 0 0 0 .013.062c.01.01.023.016.039.016.017 0 .03-.005.04-.016a.057.057 0 0 0 .017-.04.057.057 0 0 0-.016-.04A.053.053 0 0 0 .235.36m.116 0a.055.055 0 0 0-.04.017.055.055 0 0 0-.017.04c0 .015.006.029.017.04a.055.055 0 0 0 .04.016c.016 0 .03-.005.04-.016a.057.057 0 0 0 .016-.04.057.057 0 0 0-.016-.04.052.052 0 0 0-.04-.017M0 0v.228h.469V0H0z"/></symbol><symbol id="z"><path d="M.152 0A.153.153 0 0 0 0 .152v.302a.229.229 0 0 0 .457 0V.226H.23V0H.152M.23.398c.015 0 .029.005.04.016a.055.055 0 0 1 .016.04c0 .016-.005.03-.016.04a.054.054 0 0 1-.04.017.056.056 0 0 1-.04-.017.053.053 0 0 1-.017-.04c0-.016.006-.03.017-.04A.056.056 0 0 1 .23.398z"/></symbol><symbol id="A"><path d="M0 0v.228h.124v.19a.148.148 0 0 0 .044.108.151.151 0 0 0 .109.045h.076V0H0z"/></symbol><symbol id="B"><path d="M0 0v.228h.124v.19a.148.148 0 0 0 .044.108.151.151 0 0 0 .109.045h.076V.152A.153.153 0 0 0 .308.045.148.148 0 0 0 .2 0H0z"/></symbol><symbol id="C"><path d="M.152 0a.142.142 0 0 0-.059.012.166.166 0 0 0-.048.033.166.166 0 0 0-.033.048.142.142 0 0 0-.012.06V.57h.077A.152.152 0 0 0 .184.527.15.15 0 0 0 .217.478a.146.146 0 0 0 .012-.06V0H.152z"/></symbol><symbol id="D"><path d="M0 0v.077a.155.155 0 0 0 .07.128.144.144 0 0 0 .072.023v.19a.151.151 0 0 0 .093.14.146.146 0 0 0 .06.013H.37V.228h.046v.19a.151.151 0 0 0 .093.14.146.146 0 0 0 .06.013h.076V.15A.18.18 0 0 0 .631.079.133.133 0 0 0 .583.022.135.135 0 0 0 .504 0H0z"/></symbol><symbol id="E"><path d="M.075 0c-.01 0-.02.002-.029.006a.082.082 0 0 0-.04.04A.074.074 0 0 0 0 .075v.13h.038A.072.072 0 0 0 .107.159.07.07 0 0 0 .113.13V0H.075z"/></symbol><symbol id="F"><path d="M.228 0a.227.227 0 0 0-.16.39.225.225 0 0 0 .25.048.233.233 0 0 0 .14-.21V0h-.23m0 .171c.016 0 .03.006.04.017a.055.055 0 0 1 .017.04.05.05 0 0 1-.008.029.055.055 0 0 1-.021.02.054.054 0 0 1-.067-.01.053.053 0 0 1-.017-.04C.172.213.178.2.188.188a.053.053 0 0 1 .04-.016z"/></symbol><symbol id="G"><path d="M.353.474a.056.056 0 0 0-.056.057.056.056 0 0 0 .056.056A.055.055 0 0 0 .41.531.056.056 0 0 0 .353.475M0 0v.228h.124a.22.22 0 0 0 .068.16.233.233 0 0 0 .161.068A.22.22 0 0 0 .514.39a.224.224 0 0 0 .05-.25A.229.229 0 0 0 .354 0H0m.353.171c.017 0 .03.006.04.017C.405.2.41.213.41.228c0 .016-.005.03-.017.04a.056.056 0 0 1-.079 0 .053.053 0 0 1-.016-.04c0-.016.005-.03.016-.04A.055.055 0 0 1 .353.17z"/></symbol><use xlink:href="#v" transform="matrix(10.5832 0 0 -10.5832 28.88 46.863)" fill="#3c4f75"/><use xlink:href="#w" transform="matrix(10.5832 0 0 -10.5832 32.015 53.748)" fill="#3c4f75"/><use xlink:href="#x" transform="matrix(10.5832 0 0 -10.5832 36.26 50.731)" fill="#3c4f75"/><use xlink:href="#y" transform="matrix(10.5832 0 0 -10.5832 44.685 50.731)" fill="#3c4f75"/><use xlink:href="#q" transform="matrix(10.5832 0 0 -10.5832 49.06 53.148)" fill="#3c4f75"/><use xlink:href="#j" transform="matrix(10.5832 0 0 -10.5832 54.55 50.731)" fill="#3c4f75"/><use xlink:href="#z" transform="matrix(10.5832 0 0 -10.5832 56.02 53.118)" fill="#3c4f75"/><use xlink:href="#A" transform="matrix(10.5832 0 0 -10.5832 60.272 50.731)" fill="#3c4f75"/><use xlink:href="#g" transform="matrix(10.5832 0 0 -10.5832 63.417 50.731)" fill="#3c4f75"/><use xlink:href="#B" transform="matrix(10.5832 0 0 -10.5832 68.98 50.731)" fill="#3c4f75"/><use xlink:href="#C" transform="matrix(10.5832 0 0 -10.5832 73.3 50.731)" fill="#3c4f75"/><use xlink:href="#j" transform="matrix(10.5832 0 0 -10.5832 76.017 50.731)" fill="#3c4f75"/><use xlink:href="#r" transform="matrix(10.5832 0 0 -10.5832 77.487 50.731)" fill="#3c4f75"/><use xlink:href="#k" transform="matrix(10.5832 0 0 -10.5832 82.326 50.731)" fill="#3c4f75"/><use xlink:href="#s" transform="matrix(10.5832 0 0 -10.5832 84.16 50.731)" fill="#3c4f75"/><use xlink:href="#t" transform="matrix(10.5832 0 0 -10.5832 88.764 52.195)" fill="#3c4f75"/><use xlink:href="#j" transform="matrix(10.5832 0 0 -10.5832 91.48 50.731)" fill="#3c4f75"/><use xlink:href="#D" transform="matrix(10.5832 0 0 -10.5832 92.95 50.731)" fill="#3c4f75"/><use xlink:href="#t" transform="matrix(10.5832 0 0 -10.5832 100.376 52.195)" fill="#3c4f75"/><use xlink:href="#j" transform="matrix(10.5832 0 0 -10.5832 103.093 50.731)" fill="#3c4f75"/><use xlink:href="#E" transform="matrix(10.5832 0 0 -10.5832 104.562 50.731)" fill="#3c4f75"/><use xlink:href="#F" transform="matrix(10.5832 0 0 -10.5832 106.344 50.731)" fill="#3c4f75"/><use xlink:href="#o" transform="matrix(10.5832 0 0 -10.5832 110.595 53.148)" fill="#3c4f75"/><use xlink:href="#G" transform="matrix(10.5832 0 0 -10.5832 114.97 50.731)" fill="#3c4f75"/><symbol id="H"><path d="M.152.226a.15.15 0 0 0-.14.092.152.152 0 0 0-.012.06v.075h.701V.226H.152M.352 0a.056.056 0 0 0-.056.057.056.056 0 0 0 .056.056.056.056 0 0 0 .056-.056.054.054 0 0 0-.016-.04A.054.054 0 0 0 .352 0z"/></symbol><symbol id="I"><path d="M0 0v.228h.124v.227A.115.115 0 0 0 .24.571h.114V.402h.395c.037 0 .064-.01.083-.028C.85.355.86.327.86.29V.152A.147.147 0 0 0 .814.044.156.156 0 0 0 .707 0H0m.353.228h.309c.007 0 .013.002.017.007.005.005.008.01.008.018V.26c0 .017-.009.025-.025.025H.379A.025.025 0 0 1 .36.277.024.024 0 0 1 .353.26V.228z"/></symbol><symbol id="J"><path d="M.229.139a.224.224 0 0 0-.162.067.229.229 0 0 0 .105.383V.364c0-.018.006-.03.017-.04a.063.063 0 0 1 .04-.013c.014 0 .027.005.039.013.012.01.018.022.018.04v.125c0 .02.004.038.012.055a.158.158 0 0 0 .14.086h.156A.151.151 0 0 0 .746.479v-.25H.705a.152.152 0 0 0-.14.093.152.152 0 0 0-.012.06v.075h-.04V.362A.212.212 0 0 0 .357.156.302.302 0 0 0 .256.139H.23M.183 0a.055.055 0 0 0-.049.03.057.057 0 0 0 .009.067.055.055 0 0 0 .04.016C.2.113.214.108.224.097A.058.058 0 0 0 .24.057a.053.053 0 0 0-.017-.04A.053.053 0 0 0 .183 0M.3 0a.055.055 0 0 0-.04.017.055.055 0 0 0-.016.04c0 .015.005.029.016.04A.055.055 0 0 0 .3.113C.316.113.33.108.34.096a.057.057 0 0 0 .016-.04.056.056 0 0 0-.017-.04A.053.053 0 0 0 .3 0z"/></symbol><symbol id="K"><path d="M0 .59c0 .016.004.03.012.045C.02.649.03.661.044.672a.183.183 0 0 0 .108.034h.076V.704A.083.083 0 0 0 .225.68.03.03 0 0 0 .211.662.04.04 0 0 0 .189.656H.11L.104.653A.008.008 0 0 1 .102.647C.102.642.104.64.11.64h.066C.184.64.188.638.19.634.191.63.19.627.183.623A.189.189 0 0 0 .076.59H0M.152 0a.142.142 0 0 0-.059.012.166.166 0 0 0-.048.033.166.166 0 0 0-.033.048.142.142 0 0 0-.012.06V.57h.077A.152.152 0 0 0 .184.527.15.15 0 0 0 .217.478a.146.146 0 0 0 .012-.06V0H.152z"/></symbol><symbol id="L"><path d="M.23.583A.057.057 0 0 0 .19.6.055.055 0 0 0 .172.64c0 .017.006.03.017.04.011.01.025.016.04.016A.056.056 0 0 0 .27.68.053.053 0 0 0 .285.64.053.053 0 0 0 .27.6a.056.056 0 0 0-.04-.017M.23 0a.224.224 0 0 0-.162.067.23.23 0 0 0-.045.26.22.22 0 0 0 .15.124V.227A.05.05 0 0 1 .19.187a.057.057 0 0 1 .04-.015c.015 0 .029.005.04.016a.05.05 0 0 1 .016.04v.221h.174V.222A.23.23 0 0 0 .229 0z"/></symbol><symbol id="M"><path d="M0 0v.228h.124A.224.224 0 0 0 .192.39a.233.233 0 0 0 .161.068.232.232 0 0 0 .222-.172H.352A.057.057 0 0 1 .297.228H.52C.557.228.576.209.576.172V.056C.576.019.557 0 .52 0H0z"/></symbol><symbol id="N"><path d="M.108 0a.11.11 0 0 0-.093.053A.105.105 0 0 0 0 .107v.055h.24A.109.109 0 0 0 .348.054V0h-.24z"/></symbol><use xlink:href="#H" transform="matrix(5.002 0 0 -5.002 16.46 63.244)" fill="#3c4f75"/><use xlink:href="#B" transform="matrix(5.002 0 0 -5.002 19.69 62.116)" fill="#3c4f75"/><use xlink:href="#k" transform="matrix(5.002 0 0 -5.002 21.732 62.116)" fill="#3c4f75"/><use xlink:href="#I" transform="matrix(5.002 0 0 -5.002 22.6 62.116)" fill="#3c4f75"/><use xlink:href="#j" transform="matrix(5.002 0 0 -5.002 27.037 62.116)" fill="#3c4f75"/><use xlink:href="#J" transform="matrix(5.002 0 0 -5.002 27.732 63.258)" fill="#3c4f75"/><use xlink:href="#m" transform="matrix(5.002 0 0 -5.002 31.189 63.258)" fill="#3c4f75"/><use xlink:href="#K" transform="matrix(5.002 0 0 -5.002 33.365 62.116)" fill="#3c4f75"/><use xlink:href="#j" transform="matrix(5.002 0 0 -5.002 34.648 62.116)" fill="#3c4f75"/><use xlink:href="#L" transform="matrix(5.002 0 0 -5.002 35.343 63.225)" fill="#3c4f75"/><use xlink:href="#m" transform="matrix(5.002 0 0 -5.002 37.36 63.258)" fill="#3c4f75"/><use xlink:href="#j" transform="matrix(5.002 0 0 -5.002 39.398 62.116)" fill="#3c4f75"/><use xlink:href="#J" transform="matrix(5.002 0 0 -5.002 40.092 63.258)" fill="#3c4f75"/><use xlink:href="#A" transform="matrix(5.002 0 0 -5.002 43.55 62.116)" fill="#3c4f75"/><use xlink:href="#M" transform="matrix(5.002 0 0 -5.002 45.036 62.116)" fill="#3c4f75"/><use xlink:href="#j" transform="matrix(5.002 0 0 -5.002 48.054 62.116)" fill="#3c4f75"/><use xlink:href="#N" transform="matrix(5.002 0 0 -5.002 48.748 61.51)" fill="#3c4f75"/></g></svg>
